<svg width="156" height="48" viewBox="0 0 156 48" fill="none" xmlns="http://www.w3.org/2000/svg">
<path d="M50.7728 36.6544H49.5061V36.2794H52.4529V36.6544H51.1862V39.9276H50.7695V36.6544H50.7728Z" fill="white"/>
<path d="M53.8155 40.5724H52.9688V40.1974H53.8155V39.8783L52.4628 36.2794H52.9059L54.0337 39.3881L55.0888 36.2794H55.5055L54.2322 39.8914V40.1941H55.0788V40.5691H54.2322V41.2698H53.8155V40.5691V40.5724Z" fill="white"/>
<path d="M55.9156 36.2794H56.2993V36.9735H56.3125C56.4084 36.7202 56.5672 36.5228 56.7822 36.388C57.0037 36.2465 57.2518 36.1774 57.5296 36.1774C57.7909 36.1774 58.0158 36.2301 58.2043 36.332C58.3994 36.4373 58.5615 36.5755 58.6872 36.7564C58.8161 36.9308 58.9088 37.1347 58.9716 37.3716C59.0344 37.6018 59.0642 37.8486 59.0642 38.1084C59.0642 38.3683 59.0344 38.6183 58.9716 38.8519C58.9088 39.0822 58.8161 39.2894 58.6872 39.467C58.5582 39.6414 58.3994 39.7796 58.2043 39.8848C58.0158 39.9835 57.7876 40.0329 57.5296 40.0329C57.4006 40.0329 57.2749 40.0164 57.1526 39.9835C57.0335 39.9506 56.9211 39.9013 56.8152 39.8355C56.7094 39.7697 56.6135 39.6875 56.5308 39.5888C56.4514 39.4901 56.3886 39.3749 56.3456 39.2434H56.3324V41.2796H55.9156V36.2893V36.2794ZM57.5296 39.6579C57.728 39.6579 57.9 39.6118 58.0389 39.523C58.1811 39.4276 58.2936 39.3091 58.3829 39.1611C58.4755 39.0164 58.5416 38.8486 58.5813 38.6677C58.6243 38.4802 58.6475 38.2894 58.6475 38.1019C58.6475 37.9144 58.6243 37.7268 58.5813 37.5426C58.5416 37.3551 58.4755 37.1873 58.3829 37.0393C58.2936 36.8946 58.1811 36.7761 58.0389 36.6873C57.8967 36.5919 57.728 36.5459 57.5296 36.5459C57.2948 36.5459 57.0997 36.5886 56.9475 36.6742C56.7987 36.7597 56.6763 36.8715 56.5837 37.013C56.4911 37.1544 56.425 37.3189 56.3853 37.5064C56.3489 37.6939 56.3324 37.8913 56.3324 38.1019C56.3324 38.2894 56.3522 38.4802 56.3919 38.6677C56.4349 38.8519 56.5043 39.0164 56.597 39.1611C56.6929 39.3059 56.8185 39.4276 56.9674 39.523C57.1228 39.6118 57.308 39.6579 57.5296 39.6579Z" fill="white"/>
<path d="M60.1027 38.2795H59.4545V37.9045H60.1027V36.2794H62.3616V36.6544H60.5194V37.9045H61.6604V38.2795H60.5194V39.9276H60.1027V38.2795Z" fill="white"/>
<path d="M62.7155 36.2794H63.1322V37.7433H64.2401C64.5708 37.7433 64.8354 37.8387 65.0273 38.0262C65.2224 38.2137 65.3183 38.4802 65.3183 38.8256C65.3183 39.171 65.2224 39.4408 65.0273 39.6381C64.8321 39.8322 64.5708 39.9276 64.2401 39.9276H62.7155V36.2794ZM64.1376 39.5526C64.3757 39.5526 64.5609 39.4901 64.6932 39.3684C64.8288 39.2467 64.8983 39.0657 64.8983 38.8256C64.8983 38.5854 64.8288 38.4078 64.6932 38.296C64.5609 38.1775 64.3757 38.1183 64.1376 38.1183H63.1322V39.5526H64.1376ZM65.9599 36.2794H66.3766V39.9276H65.9599V36.2794Z" fill="white"/>
<path d="M67.1604 36.2794H67.5771V37.8288H69.5185V36.2794H69.9352V39.9276H69.5185V38.2038H67.5771V39.9276H67.1604V36.2794Z" fill="white"/>
<path d="M73.5369 39.8783L72.1842 36.2794H72.6274L73.7552 39.3881L74.8069 36.2794H75.2236L73.9503 39.8914V41.2698H73.5336V39.8783H73.5369Z" fill="white"/>
<path d="M75.6271 39.9276V36.2794H76.0438V39.4046L77.9323 36.2794H78.4482V39.9276H78.0315V36.8025L76.143 39.9276H75.6271ZM77.0261 35.7432C76.7483 35.7432 76.53 35.6643 76.3778 35.5097C76.2224 35.3485 76.1298 35.1215 76.0934 34.8254H76.3514C76.3745 35.0064 76.4407 35.1445 76.5564 35.2498C76.6755 35.3551 76.8342 35.4044 77.0327 35.4044C77.2311 35.4044 77.3766 35.3551 77.4957 35.2564C77.6181 35.1511 77.6974 35.0097 77.7338 34.8254H77.9918C77.9422 35.1215 77.8397 35.3518 77.6809 35.5097C77.5222 35.6643 77.3039 35.7432 77.0261 35.7432Z" fill="white"/>
<path d="M81.0841 36.2794H81.5008V38.1512L83.3959 36.2794H83.9515L82.4996 37.7071L84.0375 39.9276H83.515L82.1954 38.0131L81.5008 38.6973V39.9276H81.0841V36.2794Z" fill="white"/>
<path d="M85.754 40.0263C85.4795 40.0263 85.2446 39.977 85.0528 39.8783C84.8577 39.773 84.6989 39.6349 84.5766 39.4605C84.4542 39.2829 84.3616 39.0756 84.2988 38.8454C84.2425 38.6151 84.2128 38.3684 84.2128 38.1019C84.2128 37.8618 84.2425 37.6249 84.2988 37.3946C84.3616 37.1644 84.4542 36.9604 84.5766 36.7795C84.6989 36.5953 84.8577 36.4505 85.0528 36.342C85.2479 36.2301 85.4795 36.1709 85.754 36.1709C86.0285 36.1709 86.2633 36.2301 86.4551 36.3485C86.6502 36.467 86.8057 36.6216 86.9247 36.8157C87.0471 37.0032 87.1364 37.2236 87.1893 37.4736C87.2422 37.717 87.2654 37.967 87.2555 38.2236H84.6262C84.6262 38.3881 84.646 38.5559 84.6857 38.7269C84.7287 38.898 84.7982 39.0493 84.8908 39.1875C84.9834 39.3256 85.0991 39.4375 85.2413 39.5263C85.3836 39.6151 85.5522 39.6612 85.7507 39.6612C86.0549 39.6612 86.2931 39.5757 86.465 39.4079C86.637 39.2368 86.7561 39.0131 86.8222 38.7302H87.2389C87.1496 39.1447 86.9876 39.4638 86.7495 39.6908C86.5146 39.9178 86.1806 40.0296 85.7507 40.0296L85.754 40.0263ZM86.8388 37.8486C86.8355 37.6775 86.8057 37.5164 86.7528 37.3617C86.7032 37.2071 86.6337 37.069 86.5411 36.9505C86.4485 36.8288 86.3361 36.7301 86.2038 36.661C86.0715 36.5854 85.9226 36.5492 85.754 36.5492C85.5853 36.5492 85.4299 36.5854 85.2976 36.661C85.1653 36.7301 85.0528 36.8288 84.9602 36.9505C84.8676 37.069 84.7915 37.2071 84.7353 37.3683C84.6824 37.5229 84.646 37.6841 84.6295 37.8486H86.8421H86.8388Z" fill="white"/>
<path d="M87.8112 36.2794H88.2279V39.5526H89.8055V36.2794H90.2222V39.5526H91.7998V36.2794H92.2165V39.9276H87.8112V36.2794Z" fill="white"/>
<path d="M94.3795 40.0263C94.1049 40.0263 93.8734 39.977 93.6783 39.8783C93.4832 39.773 93.3244 39.6349 93.2021 39.4605C93.0797 39.2829 92.9871 39.0756 92.9242 38.8454C92.868 38.6151 92.8383 38.3684 92.8383 38.1019C92.8383 37.8618 92.868 37.6249 92.9242 37.3946C92.9871 37.1644 93.0797 36.9604 93.2021 36.7795C93.3244 36.5953 93.4832 36.4505 93.6783 36.342C93.8734 36.2301 94.1083 36.1709 94.3795 36.1709C94.6506 36.1709 94.8888 36.2301 95.0806 36.3485C95.2724 36.467 95.4312 36.6216 95.5502 36.8157C95.6726 37.0032 95.7619 37.2236 95.8148 37.4736C95.8677 37.717 95.8909 37.967 95.881 38.2236H93.2517C93.2517 38.3881 93.2715 38.5559 93.3112 38.7269C93.3542 38.898 93.4236 39.0493 93.5163 39.1875C93.6089 39.3256 93.7246 39.4375 93.8668 39.5263C94.009 39.6151 94.1777 39.6612 94.3761 39.6612C94.6804 39.6612 94.9185 39.5757 95.0905 39.4079C95.2625 39.2368 95.3816 39.0131 95.4477 38.7302H95.8644C95.7751 39.1447 95.6131 39.4638 95.3749 39.6908C95.1401 39.9178 94.8061 40.0296 94.3728 40.0296L94.3795 40.0263ZM95.4642 37.8486C95.4609 37.6775 95.4312 37.5164 95.3783 37.3617C95.3286 37.2071 95.2592 37.069 95.1666 36.9505C95.074 36.8288 94.9615 36.7301 94.8292 36.661C94.697 36.5854 94.5481 36.5492 94.3795 36.5492C94.2108 36.5492 94.0553 36.5854 93.923 36.661C93.7908 36.7301 93.6783 36.8288 93.5857 36.9505C93.4931 37.069 93.417 37.2071 93.3608 37.3683C93.3079 37.5229 93.2715 37.6841 93.255 37.8486H95.4676H95.4642Z" fill="white"/>
<path d="M96.4366 36.2794H96.8534V37.8288H98.7947V36.2794H99.2115V39.9276H98.7947V38.2038H96.8534V39.9276H96.4366V36.2794Z" fill="white"/>
<path d="M100.009 36.2794H100.425V39.9276H100.009V36.2794ZM100.009 34.8813H100.425V35.5952H100.009V34.8813Z" fill="white"/>
<path d="M103.233 34.3715H103.584V41.4343H103.233V34.3715Z" fill="white"/>
<path d="M107.414 37.8058L106.081 36.2794H106.643L108.214 38.1446V36.2794H108.631V38.1381L110.202 36.2794H110.764L109.431 37.8058L110.909 39.9276H110.4L109.14 38.1052L108.631 38.671V39.9309H108.214V38.671L107.705 38.1052L106.445 39.9276H105.935L107.414 37.8058Z" fill="white"/>
<path d="M111.26 36.2794H111.677V39.4046L113.565 36.2794H114.081V39.9276H113.664V36.8025L111.776 39.9276H111.26V36.2794Z" fill="white"/>
<path d="M114.829 39.9638C114.805 39.9638 114.779 39.9638 114.749 39.9572C114.719 39.9506 114.686 39.9474 114.65 39.9441C114.62 39.9375 114.587 39.9342 114.557 39.9309C114.531 39.921 114.511 39.9145 114.498 39.9079V39.5197C114.534 39.5329 114.587 39.546 114.657 39.5559C114.726 39.5658 114.786 39.569 114.835 39.569C114.878 39.569 114.928 39.5625 114.981 39.546C115.034 39.5296 115.087 39.4934 115.139 39.4342C115.192 39.3684 115.242 39.2664 115.292 39.1315C115.341 38.9934 115.381 38.8059 115.417 38.5657C115.454 38.3223 115.48 38.0131 115.503 37.6479C115.526 37.2762 115.536 36.8222 115.536 36.2827H117.822V39.9309H117.405V36.6577H115.94C115.94 37.1841 115.923 37.6315 115.893 37.9999C115.867 38.3683 115.827 38.6743 115.774 38.9177C115.721 39.1644 115.659 39.3552 115.589 39.4967C115.52 39.6381 115.44 39.7434 115.358 39.8158C115.278 39.8816 115.192 39.921 115.1 39.9375C115.01 39.9572 114.921 39.9671 114.829 39.9671V39.9638Z" fill="white"/>
<path d="M120.061 40.0263C119.799 40.0263 119.568 39.977 119.366 39.8783C119.168 39.773 118.999 39.6349 118.863 39.4605C118.728 39.2862 118.622 39.0822 118.552 38.8519C118.483 38.6151 118.447 38.3651 118.447 38.1019C118.447 37.8387 118.483 37.5953 118.552 37.3584C118.622 37.1216 118.728 36.9176 118.863 36.7433C118.999 36.5689 119.168 36.4308 119.366 36.3255C119.568 36.2202 119.803 36.1709 120.061 36.1709C120.319 36.1709 120.55 36.2235 120.749 36.3255C120.95 36.4308 121.122 36.5689 121.258 36.7433C121.393 36.9176 121.499 37.1216 121.569 37.3584C121.638 37.5953 121.675 37.842 121.675 38.1019C121.675 38.3618 121.638 38.6151 121.569 38.8519C121.499 39.0822 121.393 39.2862 121.258 39.4605C121.122 39.6349 120.95 39.773 120.749 39.8783C120.55 39.977 120.319 40.0263 120.061 40.0263ZM120.061 39.6579C120.259 39.6579 120.434 39.6118 120.583 39.523C120.732 39.4342 120.858 39.3158 120.954 39.1677C121.056 39.023 121.129 38.8552 121.178 38.6743C121.231 38.4868 121.258 38.296 121.258 38.1019C121.258 37.9078 121.231 37.7203 121.178 37.5361C121.129 37.3486 121.056 37.1808 120.954 37.0328C120.858 36.888 120.732 36.7696 120.583 36.6808C120.434 36.592 120.259 36.5459 120.061 36.5459C119.862 36.5459 119.687 36.592 119.538 36.6808C119.389 36.7696 119.264 36.888 119.161 37.0328C119.065 37.1775 118.989 37.3453 118.936 37.5361C118.887 37.7203 118.863 37.9078 118.863 38.1019C118.863 38.296 118.887 38.4868 118.936 38.6743C118.989 38.8585 119.065 39.023 119.161 39.1677C119.264 39.3158 119.389 39.4309 119.538 39.523C119.687 39.6118 119.862 39.6579 120.061 39.6579Z" fill="white"/>
<path d="M122.29 39.9276V36.2794H122.707V39.4046L124.595 36.2794H125.111V39.9276H124.694V36.8025L122.806 39.9276H122.29ZM123.689 35.7432C123.411 35.7432 123.196 35.6643 123.041 35.5097C122.885 35.3485 122.793 35.1215 122.756 34.8254H123.014C123.037 35.0064 123.103 35.1445 123.219 35.2498C123.338 35.3551 123.497 35.4044 123.695 35.4044C123.894 35.4044 124.039 35.3551 124.158 35.2564C124.281 35.1511 124.36 35.0097 124.397 34.8254H124.655C124.605 35.1215 124.502 35.3518 124.344 35.5097C124.185 35.6643 123.967 35.7432 123.689 35.7432Z" fill="white"/>
<path d="M127.743 36.2794H128.16V38.1512L130.055 36.2794H130.611L129.159 37.7071L130.697 39.9276H130.174L128.855 38.0131L128.16 38.6973V39.9276H127.743V36.2794Z" fill="white"/>
<path d="M132.489 40.0263C132.228 40.0263 131.997 39.977 131.795 39.8783C131.596 39.773 131.428 39.6349 131.292 39.4605C131.156 39.2862 131.051 39.0822 130.981 38.8519C130.912 38.6151 130.875 38.3651 130.875 38.1019C130.875 37.8387 130.912 37.5953 130.981 37.3584C131.051 37.1216 131.156 36.9176 131.292 36.7433C131.428 36.5689 131.596 36.4308 131.795 36.3255C131.997 36.2202 132.231 36.1709 132.489 36.1709C132.747 36.1709 132.979 36.2235 133.177 36.3255C133.379 36.4308 133.551 36.5689 133.687 36.7433C133.822 36.9176 133.928 37.1216 133.997 37.3584C134.067 37.5953 134.103 37.842 134.103 38.1019C134.103 38.3618 134.067 38.6151 133.997 38.8519C133.928 39.0822 133.822 39.2862 133.687 39.4605C133.551 39.6349 133.379 39.773 133.177 39.8783C132.979 39.977 132.747 40.0263 132.489 40.0263ZM132.489 39.6579C132.688 39.6579 132.863 39.6118 133.012 39.523C133.161 39.4342 133.286 39.3158 133.382 39.1677C133.485 39.023 133.558 38.8552 133.607 38.6743C133.66 38.4868 133.687 38.296 133.687 38.1019C133.687 37.9078 133.66 37.7203 133.607 37.5361C133.558 37.3486 133.485 37.1808 133.382 37.0328C133.286 36.888 133.161 36.7696 133.012 36.6808C132.863 36.592 132.688 36.5459 132.489 36.5459C132.291 36.5459 132.116 36.592 131.967 36.6808C131.818 36.7696 131.692 36.888 131.59 37.0328C131.494 37.1775 131.418 37.3453 131.365 37.5361C131.315 37.7203 131.292 37.9078 131.292 38.1019C131.292 38.296 131.315 38.4868 131.365 38.6743C131.418 38.8585 131.494 39.023 131.59 39.1677C131.692 39.3158 131.818 39.4309 131.967 39.523C132.116 39.6151 132.291 39.6579 132.489 39.6579Z" fill="white"/>
<path d="M134.719 36.2794H135.274L136.547 39.4243L137.808 36.2794H138.363V39.9276H137.946V36.9242H137.927L136.729 39.9276H136.359L135.158 36.9242H135.139V39.9276H134.722V36.2794H134.719Z" fill="white"/>
<path d="M139.144 36.2794H141.872V39.9276H141.455V36.6544H139.56V39.9276H139.144V36.2794Z" fill="white"/>
<path d="M142.623 39.9638C142.6 39.9638 142.573 39.9638 142.544 39.9572C142.514 39.9506 142.481 39.9474 142.444 39.9441C142.415 39.9375 142.382 39.9342 142.352 39.9309C142.325 39.921 142.305 39.9145 142.292 39.9079V39.5197C142.329 39.5329 142.382 39.546 142.451 39.5559C142.52 39.5658 142.58 39.569 142.63 39.569C142.673 39.569 142.722 39.5625 142.775 39.546C142.828 39.5329 142.881 39.4934 142.934 39.4342C142.987 39.3684 143.036 39.2664 143.086 39.1315C143.136 38.9934 143.175 38.8059 143.212 38.5657C143.248 38.3223 143.275 38.0131 143.298 37.6479C143.321 37.2762 143.331 36.8222 143.331 36.2827H145.616V39.9309H145.199V36.6577H143.734C143.734 37.1841 143.718 37.6315 143.688 37.9999C143.661 38.3683 143.622 38.6743 143.569 38.9177C143.516 39.1644 143.453 39.3552 143.384 39.4967C143.314 39.6381 143.235 39.7434 143.152 39.8158C143.073 39.8816 142.987 39.921 142.894 39.9375C142.805 39.9572 142.716 39.9671 142.623 39.9671V39.9638Z" fill="white"/>
<path d="M147.782 40.0263C147.508 40.0263 147.273 39.977 147.081 39.8783C146.886 39.773 146.727 39.6349 146.605 39.4605C146.483 39.2829 146.39 39.0756 146.327 38.8454C146.271 38.6151 146.241 38.3684 146.241 38.1019C146.241 37.8618 146.271 37.6249 146.327 37.3946C146.39 37.1644 146.483 36.9604 146.605 36.7795C146.727 36.5953 146.889 36.4505 147.081 36.342C147.276 36.2301 147.511 36.1709 147.782 36.1709C148.053 36.1709 148.292 36.2301 148.483 36.3485C148.679 36.467 148.834 36.6216 148.953 36.8157C149.075 37.0032 149.165 37.2236 149.218 37.4736C149.271 37.717 149.294 37.967 149.284 38.2236H146.655C146.655 38.3881 146.674 38.5559 146.714 38.7269C146.757 38.898 146.826 39.0493 146.919 39.1875C147.012 39.3256 147.127 39.4375 147.27 39.5263C147.412 39.6151 147.581 39.6612 147.779 39.6612C148.083 39.6612 148.321 39.5757 148.493 39.4079C148.665 39.2368 148.784 39.0131 148.851 38.7302H149.267C149.178 39.1447 149.016 39.4638 148.778 39.6908C148.543 39.9178 148.209 40.0296 147.779 40.0296L147.782 40.0263ZM148.867 37.8486C148.864 37.6775 148.834 37.5164 148.781 37.3617C148.731 37.2071 148.662 37.069 148.569 36.9505C148.477 36.8288 148.364 36.7301 148.232 36.661C148.1 36.5854 147.948 36.5492 147.782 36.5492C147.617 36.5492 147.458 36.5854 147.326 36.661C147.194 36.7301 147.081 36.8288 146.989 36.9505C146.896 37.069 146.82 37.2071 146.764 37.3683C146.711 37.5229 146.674 37.6841 146.658 37.8486H148.87H148.867Z" fill="white"/>
<path d="M149.846 36.2794H150.263V38.1512L152.158 36.2794H152.713L151.262 37.7071L152.799 39.9276H152.277L150.957 38.0131L150.263 38.6973V39.9276H149.846V36.2794Z" fill="white"/>
<path d="M154.589 40.0263C154.327 40.0263 154.096 39.977 153.894 39.8783C153.696 39.773 153.527 39.6349 153.391 39.4605C153.256 39.2862 153.15 39.0822 153.081 38.8519C153.011 38.6151 152.975 38.3651 152.975 38.1019C152.975 37.8387 153.011 37.5953 153.081 37.3584C153.15 37.1216 153.256 36.9176 153.391 36.7433C153.527 36.5689 153.696 36.4308 153.894 36.3255C154.096 36.2202 154.331 36.1709 154.589 36.1709C154.956 36.1709 155.263 36.2762 155.515 36.4834C155.769 36.6907 155.925 37.0032 155.971 37.4242H155.554C155.498 37.1512 155.392 36.9374 155.237 36.7795C155.081 36.6249 154.867 36.5459 154.589 36.5459C154.39 36.5459 154.215 36.592 154.066 36.6808C153.917 36.7696 153.792 36.888 153.689 37.0328C153.593 37.1775 153.517 37.3453 153.464 37.5361C153.415 37.7203 153.391 37.9078 153.391 38.1019C153.391 38.296 153.415 38.4868 153.464 38.6743C153.517 38.8585 153.593 39.023 153.689 39.1677C153.792 39.3158 153.917 39.4309 154.066 39.523C154.215 39.6151 154.39 39.6579 154.589 39.6579C154.718 39.6579 154.84 39.6316 154.952 39.5789C155.068 39.5263 155.167 39.4572 155.257 39.3651C155.346 39.2697 155.419 39.1612 155.475 39.0329C155.531 38.9046 155.568 38.7664 155.581 38.6151H155.998C155.941 39.0592 155.789 39.4046 155.541 39.6546C155.293 39.898 154.976 40.023 154.585 40.023L154.589 40.0263Z" fill="white"/>
<path d="M53.283 11.374C54.3621 11.374 55.2874 11.7553 56.0565 12.5179C56.8256 13.2735 57.2114 14.1844 57.2114 15.2554C57.2114 16.3264 56.6529 17.0373 55.5335 17.2986C56.3429 17.4139 57.2587 17.9835 58.2834 19.0074C59.3175 20.0314 59.8334 21.4484 59.8334 23.2561C59.8334 25.0639 59.1921 26.6292 57.9095 27.9449C56.7049 29.1854 55.4957 29.8115 54.284 29.828V29.8516H49.5061V11.3763H53.283V11.374ZM51.9199 19.1463V27.4483H54.2864V27.413C54.7834 27.3824 55.401 26.9846 56.1393 26.2243C56.9558 25.3934 57.3628 24.4024 57.3628 23.2561C57.3628 22.1098 56.9558 21.1588 56.1393 20.3585C55.33 19.5512 54.355 19.1463 53.2144 19.1463H51.9199ZM51.9199 13.7631V16.6842H53.4936C53.851 16.6536 54.1586 16.5194 54.4142 16.2793C54.6934 16.0251 54.833 15.6838 54.833 15.2507C54.833 14.8176 54.6863 14.4645 54.3905 14.1891C54.1018 13.9043 53.735 13.7608 53.283 13.7608H51.9199V13.7631Z" fill="white"/>
<path d="M71.1192 24.4683V22.7124C70.9796 21.9662 70.6057 21.2883 69.9998 20.681C69.1834 19.8807 68.2037 19.4806 67.063 19.4806C65.9224 19.4806 64.9309 19.8807 64.1144 20.681C63.3051 21.4813 62.9028 22.4511 62.9028 23.5904C62.9028 24.7296 63.3074 25.6923 64.1144 26.4997C64.9309 27.3 65.9129 27.7002 67.063 27.7002C68.2132 27.7002 69.1834 27.3 69.9998 26.4997C70.6057 25.8924 70.9796 25.2145 71.1192 24.4683ZM71.1192 18.798V17.9671H73.5448V29.861H71.1192V28.371C69.9525 29.5644 68.6013 30.1599 67.063 30.1599C65.229 30.1599 63.6624 29.522 62.3656 28.2439C61.0759 26.9587 60.4298 25.4075 60.4298 23.5904C60.4298 21.7732 61.0759 20.2267 62.3656 18.9486C63.6624 17.6634 65.229 17.0208 67.063 17.0208C68.6013 17.0208 69.9549 17.614 71.1192 18.798Z" fill="white"/>
<path d="M77.7642 17.967V29.8492H75.3504V17.967H77.7642ZM76.5526 13.0828C77.0188 13.0828 77.4187 13.2452 77.7524 13.5677C78.0861 13.8902 78.2541 14.288 78.2541 14.7564C78.2541 15.2248 78.0861 15.6226 77.7524 15.9451C77.4187 16.2676 77.0188 16.43 76.5526 16.43C76.0864 16.43 75.6983 16.2676 75.3646 15.9451C75.0309 15.6226 74.8629 15.2248 74.8629 14.7564C74.8629 14.288 75.0309 13.8902 75.3646 13.5677C75.6983 13.2452 76.0959 13.0828 76.5526 13.0828Z" fill="white"/>
<path d="M88.8156 13.5442C86.8491 13.5442 85.1712 14.2339 83.7797 15.6109C82.3977 16.9808 81.7043 18.6403 81.7043 20.5869C81.7043 22.5335 82.4001 24.1977 83.7916 25.5747C85.1831 26.9517 86.8562 27.6413 88.8156 27.6413C90.7751 27.6413 92.4553 26.9517 93.8396 25.5747C95.2311 24.1977 95.9269 22.5335 95.9269 20.5869C95.9269 18.6403 95.2311 16.9808 93.8396 15.6109C92.4553 14.2339 90.7822 13.5442 88.8156 13.5442ZM92.8031 29.2137C92.983 29.322 93.1676 29.4444 93.3616 29.5832C93.9059 29.8681 94.2751 30.0422 94.4691 30.1034C94.5543 30.127 94.6372 30.1388 94.7152 30.1388C94.8478 30.1388 94.9803 30.1011 95.1105 30.0234C95.3116 29.9081 95.4441 29.7386 95.508 29.515C95.5317 29.4467 95.5577 29.1619 95.5908 28.6605H98.026C97.9715 29.4161 97.91 29.9151 97.839 30.1623C97.5905 31.0167 97.0746 31.6593 96.289 32.0901C95.792 32.3749 95.2714 32.5185 94.7271 32.5185C94.4242 32.5185 94.1213 32.4761 93.8184 32.3914C93.3214 32.2596 92.6564 31.93 91.8258 31.3981C91.1584 31.052 90.6946 30.8402 90.439 30.7625C90.2923 30.7249 90.1527 30.706 90.0202 30.706C89.7859 30.706 89.5611 30.7672 89.3433 30.892C88.986 31.0921 88.7517 31.3933 88.6429 31.7935C88.6263 31.8312 88.6003 32.0854 88.56 32.5561H86.1249C86.1865 31.8241 86.2504 31.3463 86.3119 31.125C86.4444 30.6566 86.6456 30.24 86.9177 29.8775C85.0837 29.5315 83.4674 28.6653 82.0688 27.2788C80.204 25.4311 79.2716 23.202 79.2716 20.594C79.2716 17.9859 80.204 15.7568 82.0688 13.9091C83.9336 12.0613 86.1841 11.1386 88.818 11.1386C91.4519 11.1386 93.7024 12.0613 95.5672 13.9091C97.432 15.7568 98.3644 17.9859 98.3644 20.594C98.3644 23.202 97.432 25.4311 95.5672 27.2788C94.7271 28.1097 93.8065 28.757 92.8055 29.2184L92.8031 29.2137Z" fill="white"/>
<path d="M110.079 24.4683V22.7124C109.939 21.9662 109.565 21.2883 108.959 20.681C108.143 19.8807 107.165 19.4806 106.022 19.4806C104.879 19.4806 103.89 19.8807 103.074 20.681C102.264 21.4813 101.862 22.4511 101.862 23.5904C101.862 24.7296 102.267 25.6923 103.074 26.4997C103.89 27.3 104.872 27.7002 106.022 27.7002C107.173 27.7002 108.143 27.3 108.959 26.4997C109.565 25.8924 109.939 25.2145 110.079 24.4683ZM110.079 18.798V17.9671H112.502V29.861H110.079V28.371C108.912 29.5644 107.561 30.1599 106.022 30.1599C104.188 30.1599 102.622 29.522 101.325 28.2439C100.035 26.9587 99.3892 25.4075 99.3892 23.5904C99.3892 21.7732 100.033 20.2267 101.325 18.9486C102.622 17.6634 104.188 17.0208 106.022 17.0208C107.561 17.0208 108.912 17.614 110.079 18.798Z" fill="white"/>
<path d="M124.523 24.4683V22.7006C124.384 21.9544 124.008 21.2765 123.392 20.6692C122.585 19.8619 121.606 19.457 120.456 19.457C119.305 19.457 118.323 19.8619 117.507 20.6692C116.698 21.4766 116.295 22.4464 116.295 23.5786C116.295 24.7108 116.7 25.6876 117.507 26.4879C118.323 27.2882 119.305 27.6884 120.456 27.6884C121.606 27.6884 122.585 27.2882 123.392 26.4879C124.005 25.8806 124.384 25.2051 124.523 24.4683ZM124.523 18.7862V11.374H126.947V29.8492H124.523V28.371C123.357 29.5644 122.001 30.1599 120.456 30.1599C118.621 30.1599 117.055 29.5173 115.758 28.2321C114.468 26.9469 113.822 25.3957 113.822 23.5786C113.822 21.7614 114.468 20.2102 115.758 18.9251C117.055 17.6399 118.621 16.9973 120.456 16.9973C122.001 16.9973 123.357 17.5928 124.523 18.7862Z" fill="white"/>
<path d="M138.942 24.4683V22.7124C138.803 21.9662 138.429 21.2883 137.823 20.681C137.007 19.8807 136.029 19.4806 134.886 19.4806C133.743 19.4806 132.754 19.8807 131.938 20.681C131.131 21.4813 130.726 22.4511 130.726 23.5904C130.726 24.7296 131.131 25.6923 131.938 26.4997C132.754 27.3 133.736 27.7002 134.886 27.7002C136.036 27.7002 137.009 27.3 137.823 26.4997C138.429 25.8924 138.803 25.2145 138.942 24.4683ZM138.942 18.798V17.9671H141.366V29.861H138.942V28.371C137.776 29.5644 136.425 30.1599 134.886 30.1599C133.052 30.1599 131.486 29.522 130.189 28.2439C128.899 26.9587 128.253 25.4075 128.253 23.5904C128.253 21.7732 128.899 20.2267 130.189 18.9486C131.486 17.6634 133.052 17.0208 134.886 17.0208C136.425 17.0208 137.778 17.614 138.942 18.798Z" fill="white"/>
<path d="M142.977 17.967H145.391V19.0757C145.857 17.9129 146.754 17.3315 148.084 17.3315C149.414 17.3315 150.148 17.9929 150.311 19.3181C150.692 17.9953 151.74 17.3315 153.458 17.3315C155.176 17.3315 156 18.3507 156 20.3915V29.8492H153.577V21.4884C153.577 20.3185 153.099 19.7324 152.143 19.7324C151.747 19.7324 151.404 19.8713 151.118 20.149C150.832 20.4268 150.687 21.3589 150.687 22.943V29.8492H148.273L148.285 21.4884C148.285 20.3185 147.803 19.7324 146.839 19.7324C146.442 19.7324 146.101 19.8713 145.812 20.149C145.564 20.3868 145.424 21.0199 145.393 22.0439V29.8492H142.98V17.967H142.977Z" fill="white"/>
<path fill-rule="evenodd" clip-rule="evenodd" d="M21.0008 0C26.7947 0 31.7441 2.07061 35.8458 6.21028C39.9476 10.35 42 15.344 42 21.1923C42 27.0407 39.9491 32.0347 35.8458 36.1744C34.0004 38.0368 31.974 39.4861 29.7699 40.5222C30.1623 40.763 30.573 41.0394 31.0007 41.3501C32.1978 41.9885 33.0086 42.3769 33.4363 42.5151C33.6248 42.5664 33.8042 42.5928 33.9743 42.5928C34.2655 42.5928 34.5552 42.5058 34.8465 42.3334C35.291 42.074 35.5822 41.695 35.7186 41.1948C35.7692 41.0394 35.8305 40.401 35.898 39.2795H41.2566C41.137 40.9695 41.0006 42.0911 40.8458 42.6441C40.2986 44.5593 39.1628 45.9993 37.4353 46.9655C36.3409 47.6039 35.1959 47.9223 33.9988 47.9223C33.3321 47.9223 32.6653 47.8276 31.9985 47.6381C30.9041 47.3445 29.4434 46.6035 27.6148 45.4121C26.1448 44.6354 25.127 44.1617 24.563 43.9893C24.238 43.9038 23.9299 43.8603 23.6402 43.8603C23.1267 43.8603 22.6317 43.9986 22.1534 44.2751C21.3671 44.724 20.8536 45.3966 20.6145 46.2929C20.5808 46.3799 20.521 46.9484 20.4352 48H15.0765C15.2129 46.3612 15.3494 45.2925 15.4873 44.7908C15.7785 43.7392 16.2231 42.8072 16.8208 41.9963C12.7865 41.2196 9.232 39.2795 6.15415 36.1744C2.05241 32.0347 0 27.0407 0 21.1923C0 15.344 2.05087 10.35 6.15415 6.21028C10.2574 2.07061 15.2068 0 21.0008 0ZM24.4879 5.77224C24.6626 5.91981 24.8343 6.07825 25.0014 6.24601C26.3732 7.61762 27.0599 9.27504 27.0599 11.2198C27.0599 13.1646 26.062 14.4586 24.0663 14.9339C25.5072 15.1436 27.1442 16.1781 28.9728 18.039C30.8168 19.8999 31.738 22.4738 31.738 25.7607C31.738 29.0476 30.5945 31.8887 28.3076 34.2808C27.5841 35.0389 26.8606 35.6711 26.1356 36.1775C28.3229 35.4241 30.2941 34.155 32.0537 32.3718C35.1132 29.2837 36.6429 25.5572 36.6429 21.1939C36.6429 16.8305 35.1132 13.1118 32.0537 10.0424C29.8649 7.82111 27.3435 6.39824 24.4894 5.77535L24.4879 5.77224ZM13.3138 7.39704C12.109 8.09449 10.9778 8.97524 9.92329 10.0408C6.8807 13.1118 5.36017 16.829 5.36017 21.1923C5.36017 25.5557 6.88989 29.2822 9.94934 32.3702C10.9978 33.428 12.1198 34.3041 13.3138 35V7.39704ZM17.6179 33.3783H21.8392V33.3162C22.7267 33.2603 23.8288 32.5395 25.1454 31.1555C26.6016 29.6441 27.3281 27.8469 27.3281 25.7623C27.3281 23.6777 26.6 21.9504 25.1454 20.4949C23.7046 19.0254 21.9634 18.2922 19.9263 18.2922H17.6179V33.3799V33.3783ZM17.6179 13.8217H20.4244C21.0621 13.7658 21.6093 13.5203 22.0676 13.087C22.5673 12.6256 22.8156 12.0027 22.8156 11.2198C22.8156 10.4369 22.552 9.7923 22.0262 9.28902C21.5127 8.77175 20.8552 8.51235 20.0504 8.51235H17.6179V13.8217Z" fill="#558860"/>
</svg>
