<svg width="171" height="173" viewBox="0 0 171 173" fill="none" xmlns="http://www.w3.org/2000/svg">
<g clip-path="url(#clip0_593_565519)">
<path d="M25.7754 167.517H24.32V167.087H27.7058V167.517H26.2504V171.272H25.7716V167.517H25.7754Z" fill="white"/>
<path d="M29.2714 172.011H28.2986V171.581H29.2714V171.215L27.7172 167.087H28.2264L29.5222 170.653L30.7344 167.087H31.2132L29.7502 171.23V171.577H30.723V172.007H29.7502V172.811H29.2714V172.007V172.011Z" fill="white"/>
<path d="M31.6844 167.087H32.1252V167.883H32.1404C32.2506 167.593 32.433 167.366 32.68 167.212C32.9346 167.049 33.2196 166.97 33.5388 166.97C33.839 166.97 34.0974 167.031 34.314 167.148C34.5382 167.268 34.7244 167.427 34.8688 167.634C35.017 167.834 35.1234 168.068 35.1956 168.34C35.2678 168.604 35.302 168.887 35.302 169.185C35.302 169.483 35.2678 169.77 35.1956 170.038C35.1234 170.302 35.017 170.54 34.8688 170.744C34.7206 170.944 34.5382 171.102 34.314 171.223C34.0974 171.336 33.8352 171.393 33.5388 171.393C33.3906 171.393 33.2462 171.374 33.1056 171.336C32.9688 171.298 32.8396 171.242 32.718 171.166C32.5964 171.091 32.4862 170.996 32.3912 170.883C32.3 170.77 32.2278 170.638 32.1784 170.487H32.1632V172.823H31.6844V167.099V167.087ZM33.5388 170.962C33.7668 170.962 33.9644 170.91 34.124 170.808C34.2874 170.698 34.4166 170.563 34.5192 170.393C34.6256 170.227 34.7016 170.034 34.7472 169.827C34.7966 169.612 34.8232 169.393 34.8232 169.178C34.8232 168.963 34.7966 168.748 34.7472 168.536C34.7016 168.321 34.6256 168.129 34.5192 167.959C34.4166 167.793 34.2874 167.657 34.124 167.555C33.9606 167.446 33.7668 167.393 33.5388 167.393C33.269 167.393 33.0448 167.442 32.87 167.54C32.699 167.638 32.5584 167.766 32.452 167.929C32.3456 168.091 32.2696 168.28 32.224 168.495C32.1822 168.71 32.1632 168.936 32.1632 169.178C32.1632 169.393 32.186 169.612 32.2316 169.827C32.281 170.038 32.3608 170.227 32.4672 170.393C32.5774 170.559 32.7218 170.698 32.8928 170.808C33.0714 170.91 33.2842 170.962 33.5388 170.962Z" fill="white"/>
<path d="M36.4952 169.381H35.7504V168.951H36.4952V167.087H39.0906V167.517H36.974V168.951H38.285V169.381H36.974V171.272H36.4952V169.381Z" fill="white"/>
<path d="M39.4972 167.087H39.976V168.766H41.249C41.629 168.766 41.933 168.876 42.1534 169.091C42.3776 169.306 42.4878 169.611 42.4878 170.008C42.4878 170.404 42.3776 170.713 42.1534 170.94C41.9292 171.162 41.629 171.272 41.249 171.272H39.4972V167.087ZM41.1312 170.841C41.4048 170.841 41.6176 170.77 41.7696 170.63C41.9254 170.491 42.0052 170.283 42.0052 170.008C42.0052 169.732 41.9254 169.528 41.7696 169.4C41.6176 169.264 41.4048 169.196 41.1312 169.196H39.976V170.841H41.1312ZM43.225 167.087H43.7038V171.272H43.225V167.087Z" fill="white"/>
<path d="M44.6044 167.087H45.0832V168.864H47.3138V167.087H47.7926V171.272H47.3138V169.294H45.0832V171.272H44.6044V167.087Z" fill="white"/>
<path d="M51.9308 171.215L50.3766 167.087H50.8858L52.1816 170.653L53.39 167.087H53.8688L52.4058 171.23V172.811H51.927V171.215H51.9308Z" fill="white"/>
<path d="M54.3324 171.272V167.087H54.8112V170.672L56.981 167.087H57.5738V171.272H57.095V167.687L54.9252 171.272H54.3324ZM55.9398 166.472C55.6206 166.472 55.3698 166.381 55.195 166.204C55.0164 166.019 54.91 165.759 54.8682 165.419H55.1646C55.1912 165.626 55.2672 165.785 55.4002 165.906C55.537 166.026 55.7194 166.083 55.9474 166.083C56.1754 166.083 56.3426 166.026 56.4794 165.913C56.62 165.793 56.7112 165.63 56.753 165.419H57.0494C56.9924 165.759 56.8746 166.023 56.6922 166.204C56.5098 166.381 56.259 166.472 55.9398 166.472Z" fill="white"/>
<path d="M60.6024 167.087H61.0812V169.234L63.2586 167.087H63.897L62.2288 168.725L63.9958 171.272H63.3954L61.8792 169.076L61.0812 169.86V171.272H60.6024V167.087Z" fill="white"/>
<path d="M65.968 171.385C65.6526 171.385 65.3828 171.328 65.1624 171.215C64.9382 171.094 64.7558 170.936 64.6152 170.736C64.4746 170.532 64.3682 170.294 64.296 170.03C64.2314 169.766 64.1972 169.483 64.1972 169.177C64.1972 168.902 64.2314 168.63 64.296 168.366C64.3682 168.102 64.4746 167.868 64.6152 167.66C64.7558 167.449 64.9382 167.283 65.1624 167.159C65.3866 167.03 65.6526 166.962 65.968 166.962C66.2834 166.962 66.5532 167.03 66.7736 167.166C66.9978 167.302 67.1764 167.479 67.3132 167.702C67.4538 167.917 67.5564 168.17 67.6172 168.457C67.678 168.736 67.7046 169.023 67.6932 169.317H64.6722C64.6722 169.506 64.695 169.698 64.7406 169.894C64.79 170.091 64.8698 170.264 64.9762 170.423C65.0826 170.581 65.2156 170.709 65.379 170.811C65.5424 170.913 65.7362 170.966 65.9642 170.966C66.3138 170.966 66.5874 170.868 66.785 170.675C66.9826 170.479 67.1194 170.223 67.1954 169.898H67.6742C67.5716 170.374 67.3854 170.74 67.1118 171C66.842 171.26 66.4582 171.389 65.9642 171.389L65.968 171.385ZM67.2144 168.887C67.2106 168.691 67.1764 168.506 67.1156 168.328C67.0586 168.151 66.9788 167.993 66.8724 167.857C66.766 167.717 66.6368 167.604 66.4848 167.525C66.3328 167.438 66.1618 167.396 65.968 167.396C65.7742 167.396 65.5956 167.438 65.4436 167.525C65.2916 167.604 65.1624 167.717 65.056 167.857C64.9496 167.993 64.8622 168.151 64.7976 168.336C64.7368 168.513 64.695 168.698 64.676 168.887H67.2182H67.2144Z" fill="white"/>
<path d="M68.3316 167.087H68.8104V170.841H70.623V167.087H71.1018V170.841H72.9144V167.087H73.3932V171.272H68.3316V167.087Z" fill="white"/>
<path d="M75.8784 171.385C75.563 171.385 75.297 171.328 75.0728 171.215C74.8486 171.094 74.6662 170.936 74.5256 170.736C74.385 170.532 74.2786 170.294 74.2064 170.03C74.1418 169.766 74.1076 169.483 74.1076 169.177C74.1076 168.902 74.1418 168.63 74.2064 168.366C74.2786 168.102 74.385 167.868 74.5256 167.66C74.6662 167.449 74.8486 167.283 75.0728 167.159C75.297 167.03 75.5668 166.962 75.8784 166.962C76.19 166.962 76.4636 167.03 76.684 167.166C76.9044 167.302 77.0868 167.479 77.2236 167.702C77.3642 167.917 77.4668 168.17 77.5276 168.457C77.5884 168.736 77.615 169.023 77.6036 169.317H74.5826C74.5826 169.506 74.6054 169.698 74.651 169.894C74.7004 170.091 74.7802 170.264 74.8866 170.423C74.993 170.581 75.126 170.709 75.2894 170.811C75.4528 170.913 75.6466 170.966 75.8746 170.966C76.2242 170.966 76.4978 170.868 76.6954 170.675C76.893 170.479 77.0298 170.223 77.1058 169.898H77.5846C77.482 170.374 77.2958 170.74 77.0222 171C76.7524 171.26 76.3686 171.389 75.8708 171.389L75.8784 171.385ZM77.1248 168.887C77.121 168.691 77.0868 168.506 77.026 168.328C76.969 168.151 76.8892 167.993 76.7828 167.857C76.6764 167.717 76.5472 167.604 76.3952 167.525C76.2432 167.438 76.0722 167.396 75.8784 167.396C75.6846 167.396 75.506 167.438 75.354 167.525C75.202 167.604 75.0728 167.717 74.9664 167.857C74.86 167.993 74.7726 168.151 74.708 168.336C74.6472 168.513 74.6054 168.698 74.5864 168.887H77.1286H77.1248Z" fill="white"/>
<path d="M78.242 167.087H78.7208V168.864H80.9514V167.087H81.4302V171.272H80.9514V169.294H78.7208V171.272H78.242V167.087Z" fill="white"/>
<path d="M82.346 167.087H82.8248V171.272H82.346V167.087ZM82.346 165.483H82.8248V166.302H82.346V165.483Z" fill="white"/>
<path d="M86.051 164.898H86.4538V173H86.051V164.898Z" fill="white"/>
<path d="M90.8542 168.838L89.3228 167.087H89.9688L91.7738 169.226V167.087H92.2526V169.219L94.0576 167.087H94.7036L93.1722 168.838L94.8708 171.272H94.2856L92.8378 169.181L92.2526 169.83V171.275H91.7738V169.83L91.1886 169.181L89.7408 171.272H89.1556L90.8542 168.838Z" fill="white"/>
<path d="M95.2736 167.087H95.7524V170.672L97.9222 167.087H98.515V171.272H98.0362V167.687L95.8664 171.272H95.2736V167.087Z" fill="white"/>
<path d="M99.3738 171.313C99.3472 171.313 99.3168 171.313 99.2826 171.306C99.2484 171.298 99.2104 171.294 99.1686 171.291C99.1344 171.283 99.0964 171.279 99.0622 171.276C99.0318 171.264 99.009 171.257 98.9938 171.249V170.804C99.0356 170.819 99.0964 170.834 99.1762 170.845C99.256 170.857 99.3244 170.86 99.3814 170.86C99.4308 170.86 99.4878 170.853 99.5486 170.834C99.6094 170.815 99.6702 170.774 99.731 170.706C99.7918 170.63 99.8488 170.513 99.9058 170.359C99.9628 170.2 100.008 169.985 100.05 169.71C100.092 169.43 100.122 169.076 100.149 168.657C100.176 168.23 100.187 167.71 100.187 167.091H102.813V171.276H102.334V167.521H100.651C100.651 168.125 100.632 168.638 100.597 169.061C100.567 169.483 100.521 169.834 100.461 170.113C100.4 170.396 100.328 170.615 100.248 170.777C100.168 170.94 100.077 171.06 99.9818 171.143C99.8906 171.219 99.7918 171.264 99.6854 171.283C99.5828 171.306 99.4802 171.317 99.3738 171.317V171.313Z" fill="white"/>
<path d="M105.385 171.385C105.085 171.385 104.819 171.328 104.587 171.215C104.359 171.094 104.166 170.936 104.01 170.736C103.854 170.536 103.732 170.302 103.653 170.038C103.573 169.766 103.531 169.479 103.531 169.177C103.531 168.876 103.573 168.596 103.653 168.325C103.732 168.053 103.854 167.819 104.01 167.619C104.166 167.419 104.359 167.261 104.587 167.14C104.819 167.019 105.089 166.962 105.385 166.962C105.682 166.962 105.948 167.023 106.176 167.14C106.408 167.261 106.605 167.419 106.761 167.619C106.917 167.819 107.038 168.053 107.118 168.325C107.198 168.596 107.24 168.879 107.24 169.177C107.24 169.475 107.198 169.766 107.118 170.038C107.038 170.302 106.917 170.536 106.761 170.736C106.605 170.936 106.408 171.094 106.176 171.215C105.948 171.328 105.682 171.385 105.385 171.385ZM105.385 170.962C105.613 170.962 105.815 170.909 105.986 170.808C106.157 170.706 106.301 170.57 106.411 170.4C106.529 170.234 106.613 170.042 106.67 169.834C106.731 169.619 106.761 169.4 106.761 169.177C106.761 168.955 106.731 168.74 106.67 168.528C106.613 168.313 106.529 168.121 106.411 167.951C106.301 167.785 106.157 167.649 105.986 167.547C105.815 167.445 105.613 167.393 105.385 167.393C105.157 167.393 104.956 167.445 104.785 167.547C104.614 167.649 104.47 167.785 104.352 167.951C104.242 168.117 104.154 168.31 104.093 168.528C104.036 168.74 104.01 168.955 104.01 169.177C104.01 169.4 104.036 169.619 104.093 169.834C104.154 170.045 104.242 170.234 104.352 170.4C104.47 170.57 104.614 170.702 104.785 170.808C104.956 170.909 105.157 170.962 105.385 170.962Z" fill="white"/>
<path d="M107.947 171.272V167.087H108.425V170.672L110.595 167.087H111.188V171.272H110.709V167.687L108.539 171.272H107.947ZM109.554 166.472C109.235 166.472 108.988 166.381 108.809 166.204C108.631 166.019 108.524 165.759 108.482 165.419H108.779C108.805 165.626 108.881 165.785 109.014 165.906C109.151 166.026 109.334 166.083 109.562 166.083C109.79 166.083 109.957 166.026 110.094 165.913C110.234 165.793 110.325 165.63 110.367 165.419H110.664C110.607 165.759 110.489 166.023 110.306 166.204C110.124 166.381 109.873 166.472 109.554 166.472Z" fill="white"/>
<path d="M114.213 167.087H114.692V169.234L116.869 167.087H117.507L115.839 168.725L117.606 171.272H117.006L115.49 169.076L114.692 169.86V171.272H114.213V167.087Z" fill="white"/>
<path d="M119.666 171.385C119.366 171.385 119.1 171.328 118.868 171.215C118.64 171.094 118.446 170.936 118.29 170.736C118.134 170.536 118.013 170.302 117.933 170.038C117.853 169.766 117.811 169.479 117.811 169.177C117.811 168.876 117.853 168.596 117.933 168.325C118.013 168.053 118.134 167.819 118.29 167.619C118.446 167.419 118.64 167.261 118.868 167.14C119.1 167.019 119.369 166.962 119.666 166.962C119.962 166.962 120.228 167.023 120.456 167.14C120.688 167.261 120.886 167.419 121.041 167.619C121.197 167.819 121.319 168.053 121.399 168.325C121.478 168.596 121.52 168.879 121.52 169.177C121.52 169.475 121.478 169.766 121.399 170.038C121.319 170.302 121.197 170.536 121.041 170.736C120.886 170.936 120.688 171.094 120.456 171.215C120.228 171.328 119.962 171.385 119.666 171.385ZM119.666 170.962C119.894 170.962 120.095 170.909 120.266 170.808C120.437 170.706 120.582 170.57 120.692 170.4C120.81 170.234 120.893 170.042 120.95 169.834C121.011 169.619 121.041 169.4 121.041 169.177C121.041 168.955 121.011 168.74 120.95 168.528C120.893 168.313 120.81 168.121 120.692 167.951C120.582 167.785 120.437 167.649 120.266 167.547C120.095 167.445 119.894 167.393 119.666 167.393C119.438 167.393 119.236 167.445 119.065 167.547C118.894 167.649 118.75 167.785 118.632 167.951C118.522 168.117 118.435 168.31 118.374 168.528C118.317 168.74 118.29 168.955 118.29 169.177C118.29 169.4 118.317 169.619 118.374 169.834C118.435 170.045 118.522 170.234 118.632 170.4C118.75 170.57 118.894 170.702 119.065 170.808C119.236 170.913 119.438 170.962 119.666 170.962Z" fill="white"/>
<path d="M122.227 167.087H122.865L124.328 170.694L125.776 167.087H126.415V171.272H125.936V167.827H125.913L124.537 171.272H124.112L122.732 167.827H122.71V171.272H122.231V167.087H122.227Z" fill="white"/>
<path d="M127.311 167.087H130.446V171.272H129.968V167.517H127.79V171.272H127.311V167.087Z" fill="white"/>
<path d="M131.309 171.313C131.282 171.313 131.252 171.313 131.218 171.306C131.184 171.298 131.146 171.294 131.104 171.291C131.07 171.283 131.032 171.279 130.997 171.276C130.967 171.264 130.944 171.257 130.929 171.249V170.804C130.971 170.819 131.032 170.834 131.111 170.845C131.191 170.857 131.26 170.86 131.317 170.86C131.366 170.86 131.423 170.853 131.484 170.834C131.545 170.819 131.605 170.774 131.666 170.706C131.727 170.63 131.784 170.513 131.841 170.359C131.898 170.2 131.944 169.985 131.985 169.71C132.027 169.43 132.058 169.076 132.084 168.657C132.111 168.23 132.122 167.71 132.122 167.091H134.748V171.276H134.269V167.521H132.586C132.586 168.125 132.567 168.638 132.533 169.061C132.502 169.483 132.457 169.834 132.396 170.113C132.335 170.396 132.263 170.615 132.183 170.777C132.103 170.94 132.012 171.06 131.917 171.143C131.826 171.219 131.727 171.264 131.621 171.283C131.518 171.306 131.415 171.317 131.309 171.317V171.313Z" fill="white"/>
<path d="M137.237 171.385C136.922 171.385 136.652 171.328 136.431 171.215C136.207 171.094 136.025 170.936 135.884 170.736C135.744 170.532 135.637 170.294 135.565 170.03C135.5 169.766 135.466 169.483 135.466 169.177C135.466 168.902 135.5 168.63 135.565 168.366C135.637 168.102 135.744 167.868 135.884 167.66C136.025 167.449 136.211 167.283 136.431 167.159C136.656 167.03 136.925 166.962 137.237 166.962C137.549 166.962 137.822 167.03 138.043 167.166C138.267 167.302 138.445 167.479 138.582 167.702C138.723 167.917 138.825 168.17 138.886 168.457C138.947 168.736 138.974 169.023 138.962 169.317H135.941C135.941 169.506 135.964 169.698 136.01 169.894C136.059 170.091 136.139 170.264 136.245 170.423C136.352 170.581 136.485 170.709 136.648 170.811C136.811 170.913 137.005 170.966 137.233 170.966C137.583 170.966 137.856 170.868 138.054 170.675C138.252 170.479 138.388 170.223 138.464 169.898H138.943C138.841 170.374 138.654 170.74 138.381 171C138.111 171.26 137.727 171.389 137.233 171.389L137.237 171.385ZM138.483 168.887C138.48 168.691 138.445 168.506 138.385 168.328C138.328 168.151 138.248 167.993 138.141 167.857C138.035 167.717 137.906 167.604 137.754 167.525C137.602 167.438 137.427 167.396 137.237 167.396C137.047 167.396 136.865 167.438 136.713 167.525C136.561 167.604 136.431 167.717 136.325 167.857C136.219 167.993 136.131 168.151 136.067 168.336C136.006 168.513 135.964 168.698 135.945 168.887H138.487H138.483Z" fill="white"/>
<path d="M139.608 167.087H140.087V169.234L142.264 167.087H142.903L141.235 168.725L143.002 171.272H142.401L140.885 169.076L140.087 169.86V171.272H139.608V167.087Z" fill="white"/>
<path d="M145.057 171.385C144.757 171.385 144.491 171.328 144.259 171.215C144.031 171.094 143.838 170.936 143.682 170.736C143.526 170.536 143.404 170.302 143.325 170.038C143.245 169.766 143.203 169.479 143.203 169.177C143.203 168.876 143.245 168.596 143.325 168.325C143.404 168.053 143.526 167.819 143.682 167.619C143.838 167.419 144.031 167.261 144.259 167.14C144.491 167.019 144.761 166.962 145.057 166.962C145.479 166.962 145.833 167.083 146.121 167.321C146.414 167.559 146.593 167.917 146.646 168.4H146.167C146.102 168.087 145.981 167.842 145.802 167.66C145.624 167.483 145.377 167.393 145.057 167.393C144.829 167.393 144.628 167.445 144.457 167.547C144.286 167.649 144.142 167.785 144.024 167.951C143.914 168.117 143.826 168.31 143.765 168.528C143.708 168.74 143.682 168.955 143.682 169.177C143.682 169.4 143.708 169.619 143.765 169.834C143.826 170.045 143.914 170.234 144.024 170.4C144.142 170.57 144.286 170.702 144.457 170.808C144.628 170.913 144.829 170.962 145.057 170.962C145.206 170.962 145.346 170.932 145.475 170.872C145.608 170.811 145.722 170.732 145.825 170.626C145.928 170.517 146.011 170.392 146.076 170.245C146.14 170.098 146.182 169.94 146.197 169.766H146.676C146.612 170.275 146.437 170.672 146.152 170.958C145.867 171.238 145.502 171.381 145.054 171.381L145.057 171.385Z" fill="white"/>
<path fill-rule="evenodd" clip-rule="evenodd" d="M85.5 0C99.864 0 112.134 5.02997 122.303 15.0861C132.472 25.1423 137.56 37.2738 137.56 51.4808C137.56 65.6877 132.476 77.8192 122.303 87.8754C117.728 92.3997 112.704 95.9203 107.24 98.4372C108.213 99.0221 109.231 99.6938 110.291 100.448C113.259 101.999 115.269 102.943 116.329 103.279C116.797 103.403 117.241 103.467 117.663 103.467C118.385 103.467 119.103 103.256 119.825 102.837C120.927 102.207 121.649 101.286 121.988 100.071C122.113 99.6938 122.265 98.1429 122.432 95.4185H135.717C135.421 99.524 135.082 102.248 134.699 103.592C133.342 108.244 130.526 111.742 126.244 114.089C123.53 115.64 120.692 116.414 117.724 116.414C116.071 116.414 114.418 116.184 112.765 115.723C110.052 115.01 106.43 113.21 101.897 110.316C98.2528 108.429 95.7296 107.278 94.3312 106.859C93.5256 106.652 92.7618 106.546 92.0436 106.546C90.7706 106.546 89.5432 106.882 88.3576 107.554C86.4082 108.644 85.1352 110.278 84.5424 112.455C84.4588 112.667 84.3106 114.048 84.0978 116.602H70.813C71.1512 112.621 71.4894 110.025 71.8314 108.807C72.5534 106.252 73.6554 103.988 75.1374 102.018C65.1358 100.131 56.3236 95.4185 48.6932 87.8754C38.5244 77.8192 33.4362 65.6877 33.4362 51.4808C33.4362 37.2738 38.5206 25.1423 48.6932 15.0861C58.8658 5.02997 71.136 0 85.5 0ZM94.145 14.022C94.5782 14.3805 95.0038 14.7654 95.418 15.1729C98.819 18.5049 100.521 22.5311 100.521 27.2554C100.521 31.9797 98.0476 35.123 93.1 36.2777C96.672 36.7871 100.73 39.3002 105.264 43.8207C109.835 48.3413 112.119 54.5938 112.119 62.5784C112.119 70.563 109.284 77.4645 103.615 83.2756C101.821 85.117 100.027 86.6528 98.23 87.8829C103.653 86.0528 108.539 82.97 112.902 78.6381C120.487 71.1365 124.279 62.0841 124.279 51.4845C124.279 40.885 120.487 31.8514 112.902 24.3952C107.475 18.9992 101.224 15.5427 94.1488 14.0296L94.145 14.022ZM66.443 17.969C63.4562 19.6633 60.6518 21.8028 58.0374 24.3914C50.4944 31.8514 46.7248 40.8812 46.7248 51.4808C46.7248 62.0803 50.5172 71.1327 58.102 78.6343C60.7012 81.204 63.4828 83.3322 66.443 85.0227V17.969ZM77.1134 81.0833H87.5786V80.9323C89.7788 80.7965 92.511 79.0456 95.7752 75.6835C99.3852 72.012 101.186 67.6461 101.186 62.5822C101.186 57.5182 99.3814 53.3222 95.7752 49.7865C92.2032 46.2169 87.8864 44.4358 82.8362 44.4358H77.1134V81.087V81.0833ZM77.1134 33.5759H84.0712C85.652 33.4401 87.0086 32.8438 88.1448 31.7911C89.3836 30.6704 89.9992 29.1572 89.9992 27.2554C89.9992 25.3536 89.3456 23.7876 88.0422 22.5651C86.7692 21.3085 85.139 20.6783 83.144 20.6783H77.1134V33.5759Z" fill="white"/>
<path d="M6.0648 126.421C7.7976 126.421 9.2834 127.032 10.5184 128.255C11.7534 129.466 12.3728 130.926 12.3728 132.643C12.3728 134.36 11.476 135.5 9.6786 135.919C10.9782 136.103 12.4488 137.017 14.0942 138.658C15.7548 140.3 16.5832 142.571 16.5832 145.469C16.5832 148.367 15.5534 150.876 13.4938 152.986C11.5596 154.974 9.6178 155.978 7.6722 156.005V156.042H0V126.425H6.0648V126.421ZM3.876 138.881V152.19H7.676V152.133C8.474 152.084 9.4658 151.446 10.6514 150.227C11.9624 148.895 12.616 147.307 12.616 145.469C12.616 143.631 11.9624 142.107 10.6514 140.824C9.3518 139.53 7.7862 138.881 5.9546 138.881H3.876ZM3.876 130.251V134.934H6.403C6.9768 134.885 7.4708 134.67 7.8812 134.285C8.3296 133.877 8.5538 133.33 8.5538 132.636C8.5538 131.941 8.3182 131.375 7.8432 130.934C7.3796 130.477 6.7906 130.247 6.0648 130.247H3.876V130.251Z" fill="white"/>
<path d="M34.7054 147.412V144.597C34.4812 143.401 33.8808 142.314 32.908 141.341C31.597 140.058 30.0238 139.416 28.1922 139.416C26.3606 139.416 24.7684 140.058 23.4574 141.341C22.1578 142.624 21.5118 144.178 21.5118 146.005C21.5118 147.831 22.1616 149.374 23.4574 150.669C24.7684 151.952 26.3454 152.593 28.1922 152.593C30.039 152.593 31.597 151.952 32.908 150.669C33.8808 149.695 34.4812 148.608 34.7054 147.412ZM34.7054 138.322V136.99H38.6004V156.057H34.7054V153.669C32.832 155.582 30.6622 156.536 28.1922 156.536C25.2472 156.536 22.7316 155.514 20.6492 153.465C18.5782 151.405 17.5408 148.918 17.5408 146.005C17.5408 143.092 18.5782 140.613 20.6492 138.564C22.7316 136.503 25.2472 135.473 28.1922 135.473C30.6622 135.473 32.8358 136.424 34.7054 138.322Z" fill="white"/>
<path d="M45.3758 136.99V156.038H41.4998V136.99H45.3758ZM43.4302 129.16C44.1788 129.16 44.821 129.421 45.3568 129.937C45.8926 130.454 46.1624 131.092 46.1624 131.843C46.1624 132.594 45.8926 133.232 45.3568 133.749C44.821 134.266 44.1788 134.526 43.4302 134.526C42.6816 134.526 42.0584 134.266 41.5226 133.749C40.9868 133.232 40.717 132.594 40.717 131.843C40.717 131.092 40.9868 130.454 41.5226 129.937C42.0584 129.421 42.6968 129.16 43.4302 129.16Z" fill="white"/>
<path d="M63.1218 129.9C59.964 129.9 57.2698 131.006 55.0354 133.213C52.8162 135.409 51.7028 138.069 51.7028 141.19C51.7028 144.311 52.82 146.978 55.0544 149.186C57.2888 151.393 59.9754 152.499 63.1218 152.499C66.2682 152.499 68.9662 151.393 71.1892 149.186C73.4236 146.978 74.5408 144.311 74.5408 141.19C74.5408 138.069 73.4236 135.409 71.1892 133.213C68.9662 131.006 66.2796 129.9 63.1218 129.9ZM69.5248 155.02C69.8136 155.193 70.11 155.389 70.4216 155.612C71.2956 156.069 71.8884 156.348 72.2 156.446C72.3368 156.484 72.4698 156.503 72.5952 156.503C72.808 156.503 73.0208 156.442 73.2298 156.318C73.5528 156.133 73.7656 155.861 73.8682 155.503C73.9062 155.393 73.948 154.937 74.0012 154.133H77.9114C77.824 155.344 77.7252 156.144 77.6112 156.54C77.2122 157.91 76.3838 158.94 75.1222 159.631C74.3242 160.087 73.4882 160.317 72.6142 160.317C72.1278 160.317 71.6414 160.25 71.155 160.114C70.357 159.902 69.2892 159.374 67.9554 158.521C66.8838 157.967 66.139 157.627 65.7286 157.502C65.493 157.442 65.2688 157.412 65.056 157.412C64.6798 157.412 64.3188 157.51 63.9692 157.71C63.3954 158.031 63.0192 158.514 62.8444 159.155C62.8178 159.216 62.776 159.623 62.7114 160.378H58.8012C58.9 159.204 59.0026 158.438 59.1014 158.084C59.3142 157.333 59.6372 156.665 60.0742 156.084C57.1292 155.529 54.5338 154.14 52.288 151.918C49.2936 148.956 47.7964 145.382 47.7964 141.201C47.7964 137.02 49.2936 133.447 52.288 130.485C55.2824 127.523 58.8962 126.043 63.1256 126.043C67.355 126.043 70.9688 127.523 73.9632 130.485C76.9576 133.447 78.4548 137.02 78.4548 141.201C78.4548 145.382 76.9576 148.956 73.9632 151.918C72.6142 153.25 71.136 154.288 69.5286 155.027L69.5248 155.02Z" fill="white"/>
<path d="M97.2648 147.412V144.597C97.0406 143.401 96.4402 142.314 95.4674 141.341C94.1564 140.058 92.587 139.416 90.7516 139.416C88.9162 139.416 87.3278 140.058 86.0168 141.341C84.7172 142.624 84.0712 144.178 84.0712 146.005C84.0712 147.831 84.721 149.374 86.0168 150.669C87.3278 151.952 88.9048 152.593 90.7516 152.593C92.5984 152.593 94.1564 151.952 95.4674 150.669C96.4402 149.695 97.0406 148.608 97.2648 147.412ZM97.2648 138.322V136.99H101.156V156.057H97.2648V153.669C95.3914 155.582 93.2216 156.536 90.7516 156.536C87.8066 156.536 85.291 155.514 83.2086 153.465C81.1376 151.405 80.1002 148.918 80.1002 146.005C80.1002 143.092 81.1338 140.613 83.2086 138.564C85.291 136.503 87.8066 135.473 90.7516 135.473C93.2216 135.473 95.3914 136.424 97.2648 138.322Z" fill="white"/>
<path d="M120.46 147.412V144.579C120.236 143.382 119.632 142.296 118.644 141.322C117.348 140.028 115.775 139.379 113.928 139.379C112.081 139.379 110.504 140.028 109.193 141.322C107.893 142.616 107.247 144.171 107.247 145.986C107.247 147.801 107.897 149.367 109.193 150.65C110.504 151.933 112.081 152.574 113.928 152.574C115.775 152.574 117.348 151.933 118.644 150.65C119.628 149.676 120.236 148.594 120.46 147.412ZM120.46 138.303V126.421H124.351V156.038H120.46V153.669C118.587 155.582 116.409 156.537 113.928 156.537C110.983 156.537 108.467 155.506 106.385 153.446C104.314 151.386 103.276 148.899 103.276 145.986C103.276 143.073 104.314 140.586 106.385 138.526C108.467 136.466 110.983 135.436 113.928 135.436C116.409 135.436 118.587 136.39 120.46 138.303Z" fill="white"/>
<path d="M143.613 147.412V144.597C143.389 143.401 142.789 142.314 141.816 141.341C140.505 140.058 138.936 139.416 137.1 139.416C135.265 139.416 133.676 140.058 132.365 141.341C131.07 142.624 130.42 144.178 130.42 146.005C130.42 147.831 131.07 149.374 132.365 150.669C133.676 151.952 135.253 152.593 137.1 152.593C138.947 152.593 140.509 151.952 141.816 150.669C142.789 149.695 143.389 148.608 143.613 147.412ZM143.613 138.322V136.99H147.505V156.057H143.613V153.669C141.74 155.582 139.57 156.536 137.1 156.536C134.155 156.536 131.64 155.514 129.557 153.465C127.486 151.405 126.449 148.918 126.449 146.005C126.449 143.092 127.486 140.613 129.557 138.564C131.64 136.503 134.155 135.473 137.1 135.473C139.57 135.473 141.744 136.424 143.613 138.322Z" fill="white"/>
<path d="M150.092 136.99H153.968V138.767C154.717 136.903 156.157 135.971 158.293 135.971C160.428 135.971 161.606 137.032 161.869 139.156C162.48 137.035 164.164 135.971 166.923 135.971C169.681 135.971 171.004 137.605 171.004 140.877V156.038H167.113V142.635C167.113 140.76 166.345 139.82 164.81 139.82C164.175 139.82 163.624 140.043 163.164 140.488C162.705 140.933 162.473 142.428 162.473 144.967V156.038H158.597L158.616 142.635C158.616 140.76 157.841 139.82 156.294 139.82C155.656 139.82 155.108 140.043 154.645 140.488C154.246 140.869 154.022 141.884 153.972 143.526V156.038H150.096V136.99H150.092Z" fill="white"/>
</g>
<defs>
<clipPath id="clip0_593_565519">
<rect width="171" height="173" fill="white"/>
</clipPath>
</defs>
</svg>
