<svg width="424" height="128" viewBox="0 0 424 128" fill="none" xmlns="http://www.w3.org/2000/svg">
<path d="M137.998 98.3942H134.555V97.3749H142.564V98.3942H139.121V107.29H137.989V98.3942H137.998Z" fill="white"/>
<path d="M146.268 109.043H143.967V108.024H146.268V107.156L142.591 97.3749H143.796L146.861 105.824L149.728 97.3749H150.861L147.4 107.192V108.015H149.702V109.034H147.4V110.938H146.268V109.034V109.043Z" fill="white"/>
<path d="M151.976 97.3749H153.019V99.2615H153.055C153.315 98.573 153.747 98.0365 154.331 97.67C154.933 97.2855 155.607 97.0977 156.362 97.0977C157.073 97.0977 157.684 97.2408 158.196 97.5179C158.727 97.8041 159.167 98.1796 159.509 98.6713C159.859 99.1452 160.111 99.6996 160.282 100.343C160.453 100.969 160.533 101.64 160.533 102.346C160.533 103.052 160.453 103.732 160.282 104.367C160.111 104.993 159.859 105.556 159.509 106.039C159.158 106.513 158.727 106.888 158.196 107.174C157.684 107.442 157.064 107.577 156.362 107.577C156.012 107.577 155.67 107.532 155.338 107.442C155.014 107.353 154.709 107.219 154.421 107.04C154.133 106.861 153.873 106.638 153.648 106.37C153.432 106.101 153.261 105.788 153.144 105.431H153.108V110.965H151.976V97.4017V97.3749ZM156.362 106.557C156.902 106.557 157.369 106.432 157.747 106.191C158.133 105.931 158.439 105.61 158.682 105.207C158.933 104.814 159.113 104.358 159.221 103.866C159.338 103.356 159.401 102.838 159.401 102.328C159.401 101.819 159.338 101.309 159.221 100.808C159.113 100.299 158.933 99.8426 158.682 99.4403C158.439 99.0469 158.133 98.725 157.747 98.4836C157.36 98.2243 156.902 98.0991 156.362 98.0991C155.724 98.0991 155.194 98.2154 154.78 98.4478C154.376 98.6803 154.043 98.9843 153.792 99.3687C153.54 99.7532 153.36 100.2 153.252 100.71C153.153 101.22 153.108 101.756 153.108 102.328C153.108 102.838 153.162 103.356 153.27 103.866C153.387 104.367 153.576 104.814 153.828 105.207C154.088 105.601 154.43 105.931 154.834 106.191C155.257 106.432 155.76 106.557 156.362 106.557Z" fill="white"/>
<path d="M163.356 102.811H161.594V101.792H163.356V97.3749H169.495V98.3942H164.489V101.792H167.59V102.811H164.489V107.29H163.356V102.811Z" fill="white"/>
<path d="M170.457 97.3749H171.59V101.354H174.601C175.5 101.354 176.219 101.613 176.741 102.123C177.271 102.632 177.532 103.356 177.532 104.295C177.532 105.234 177.271 105.967 176.741 106.504C176.21 107.031 175.5 107.29 174.601 107.29H170.457V97.3749ZM174.323 106.271C174.97 106.271 175.473 106.101 175.833 105.77C176.201 105.44 176.39 104.948 176.39 104.295C176.39 103.643 176.201 103.16 175.833 102.856C175.473 102.534 174.97 102.373 174.323 102.373H171.59V106.271H174.323ZM179.276 97.3749H180.408V107.29H179.276V97.3749Z" fill="white"/>
<path d="M182.539 97.3749H183.671V101.586H188.948V97.3749H190.08V107.29H188.948V102.605H183.671V107.29H182.539V97.3749Z" fill="white"/>
<path d="M199.87 107.156L196.193 97.3749H197.398L200.463 105.824L203.321 97.3749H204.454L200.993 107.192V110.938H199.861V107.156H199.87Z" fill="white"/>
<path d="M205.551 107.29V97.3749H206.683V105.869L211.816 97.3749H213.218V107.29H212.086V98.7965L206.953 107.29H205.551ZM209.353 95.9175C208.598 95.9175 208.005 95.7029 207.591 95.2827C207.169 94.8446 206.917 94.2276 206.818 93.423H207.519C207.582 93.9147 207.762 94.2902 208.077 94.5764C208.4 94.8625 208.832 94.9966 209.371 94.9966C209.91 94.9966 210.306 94.8625 210.629 94.5942C210.962 94.3081 211.178 93.9237 211.277 93.423H211.978C211.843 94.2276 211.564 94.8535 211.133 95.2827C210.701 95.7029 210.108 95.9175 209.353 95.9175Z" fill="white"/>
<path d="M220.383 97.3749H221.515V102.462L226.666 97.3749H228.176L224.23 101.255L228.41 107.29H226.99L223.403 102.087L221.515 103.947V107.29H220.383V97.3749Z" fill="white"/>
<path d="M233.075 107.559C232.329 107.559 231.691 107.425 231.169 107.156C230.639 106.87 230.207 106.495 229.875 106.021C229.542 105.538 229.291 104.975 229.12 104.349C228.967 103.723 228.886 103.052 228.886 102.328C228.886 101.675 228.967 101.032 229.12 100.406C229.291 99.78 229.542 99.2257 229.875 98.7339C230.207 98.2332 230.639 97.8398 231.169 97.5447C231.7 97.2407 232.329 97.0798 233.075 97.0798C233.821 97.0798 234.459 97.2408 234.981 97.5626C235.511 97.8845 235.934 98.3047 236.257 98.8323C236.59 99.3419 236.832 99.9409 236.976 100.62C237.12 101.282 237.183 101.962 237.156 102.659H230.01C230.01 103.106 230.064 103.562 230.172 104.027C230.288 104.492 230.477 104.903 230.729 105.279C230.981 105.654 231.295 105.958 231.682 106.2C232.068 106.441 232.527 106.566 233.066 106.566C233.893 106.566 234.54 106.334 235.008 105.878C235.475 105.413 235.799 104.805 235.978 104.036H237.111C236.868 105.162 236.428 106.03 235.781 106.647C235.142 107.264 234.235 107.568 233.066 107.568L233.075 107.559ZM236.023 101.64C236.014 101.175 235.934 100.737 235.79 100.316C235.655 99.8962 235.466 99.5207 235.214 99.1988C234.963 98.868 234.657 98.5998 234.298 98.412C233.938 98.2064 233.533 98.108 233.075 98.108C232.617 98.108 232.194 98.2064 231.835 98.412C231.475 98.5998 231.169 98.868 230.918 99.1988C230.666 99.5207 230.459 99.8962 230.306 100.334C230.163 100.755 230.064 101.193 230.019 101.64H236.032H236.023Z" fill="white"/>
<path d="M238.666 97.3749H239.799V106.271H244.087V97.3749H245.219V106.271H249.507V97.3749H250.64V107.29H238.666V97.3749Z" fill="white"/>
<path d="M256.519 107.559C255.772 107.559 255.143 107.425 254.613 107.156C254.083 106.87 253.651 106.495 253.318 106.021C252.986 105.538 252.734 104.975 252.563 104.349C252.411 103.723 252.33 103.052 252.33 102.328C252.33 101.675 252.411 101.032 252.563 100.406C252.734 99.78 252.986 99.2257 253.318 98.7339C253.651 98.2332 254.083 97.8398 254.613 97.5447C255.143 97.2407 255.781 97.0798 256.519 97.0798C257.256 97.0798 257.903 97.2408 258.424 97.5626C258.946 97.8845 259.377 98.3047 259.701 98.8323C260.033 99.3419 260.276 99.9409 260.42 100.62C260.564 101.282 260.627 101.962 260.6 102.659H253.453C253.453 103.106 253.507 103.562 253.615 104.027C253.732 104.492 253.921 104.903 254.172 105.279C254.424 105.654 254.739 105.958 255.125 106.2C255.512 106.441 255.97 106.566 256.51 106.566C257.337 106.566 257.984 106.334 258.451 105.878C258.919 105.413 259.242 104.805 259.422 104.036H260.555C260.312 105.162 259.871 106.03 259.224 106.647C258.586 107.264 257.678 107.568 256.501 107.568L256.519 107.559ZM259.467 101.64C259.458 101.175 259.377 100.737 259.233 100.316C259.098 99.8962 258.91 99.5207 258.658 99.1988C258.406 98.868 258.101 98.5998 257.741 98.412C257.381 98.2064 256.977 98.108 256.519 98.108C256.06 98.108 255.638 98.2064 255.278 98.412C254.918 98.5998 254.613 98.868 254.361 99.1988C254.109 99.5207 253.903 99.8962 253.75 100.334C253.606 100.755 253.507 101.193 253.462 101.64H259.476H259.467Z" fill="white"/>
<path d="M262.11 97.3749H263.242V101.586H268.519V97.3749H269.651V107.29H268.519V102.605H263.242V107.29H262.11V97.3749Z" fill="white"/>
<path d="M271.818 97.3749H272.951V107.29H271.818V97.3749ZM271.818 93.5749H272.951V95.5151H271.818V93.5749Z" fill="white"/>
<path d="M280.582 92.1891H281.535V111.385H280.582V92.1891Z" fill="white"/>
<path d="M291.944 101.524L288.322 97.3749H289.85L294.12 102.444V97.3749H295.252V102.427L299.522 97.3749H301.05L297.428 101.524L301.446 107.29H300.061L296.637 102.337L295.252 103.875V107.299H294.12V103.875L292.735 102.337L289.311 107.29H287.926L291.944 101.524Z" fill="white"/>
<path d="M302.399 97.3749H303.531V105.869L308.664 97.3749H310.066V107.29H308.934V98.7965L303.801 107.29H302.399V97.3749Z" fill="white"/>
<path d="M312.098 107.389C312.035 107.389 311.963 107.389 311.882 107.371C311.801 107.353 311.711 107.344 311.612 107.335C311.532 107.317 311.442 107.308 311.361 107.299C311.289 107.273 311.235 107.255 311.199 107.237V106.182C311.298 106.218 311.442 106.253 311.63 106.28C311.819 106.307 311.981 106.316 312.116 106.316C312.233 106.316 312.367 106.298 312.511 106.253C312.655 106.209 312.799 106.11 312.943 105.949C313.087 105.771 313.221 105.493 313.356 105.127C313.491 104.751 313.599 104.242 313.698 103.589C313.797 102.927 313.869 102.087 313.932 101.094C313.994 100.084 314.021 98.8501 314.021 97.3838H320.233V107.299H319.1V98.4031H315.118C315.118 99.8337 315.073 101.05 314.992 102.051C314.92 103.052 314.812 103.884 314.669 104.546C314.525 105.216 314.354 105.735 314.165 106.119C313.977 106.504 313.761 106.79 313.536 106.986C313.32 107.165 313.087 107.273 312.835 107.317C312.592 107.371 312.35 107.398 312.098 107.398V107.389Z" fill="white"/>
<path d="M326.319 107.559C325.608 107.559 324.979 107.425 324.431 107.156C323.891 106.87 323.433 106.495 323.064 106.021C322.696 105.547 322.408 104.993 322.22 104.367C322.031 103.723 321.932 103.043 321.932 102.328C321.932 101.613 322.031 100.951 322.22 100.308C322.408 99.6638 322.696 99.1094 323.064 98.6355C323.433 98.1617 323.891 97.7862 324.431 97.5C324.979 97.2139 325.617 97.0798 326.319 97.0798C327.02 97.0798 327.649 97.2229 328.188 97.5C328.737 97.7862 329.204 98.1617 329.573 98.6355C329.941 99.1094 330.229 99.6638 330.418 100.308C330.606 100.951 330.705 101.622 330.705 102.328C330.705 103.035 330.606 103.723 330.418 104.367C330.229 104.993 329.941 105.547 329.573 106.021C329.204 106.495 328.737 106.87 328.188 107.156C327.649 107.425 327.02 107.559 326.319 107.559ZM326.319 106.557C326.858 106.557 327.334 106.432 327.739 106.191C328.143 105.949 328.485 105.627 328.746 105.225C329.024 104.832 329.222 104.376 329.357 103.884C329.501 103.374 329.573 102.856 329.573 102.328C329.573 101.801 329.501 101.291 329.357 100.79C329.222 100.281 329.024 99.8247 328.746 99.4224C328.485 99.029 328.143 98.7071 327.739 98.4657C327.334 98.2243 326.858 98.0991 326.319 98.0991C325.779 98.0991 325.303 98.2243 324.898 98.4657C324.494 98.7071 324.152 99.029 323.873 99.4224C323.613 99.8158 323.406 100.272 323.262 100.79C323.127 101.291 323.064 101.801 323.064 102.328C323.064 102.856 323.127 103.374 323.262 103.884C323.406 104.385 323.613 104.832 323.873 105.225C324.152 105.627 324.494 105.94 324.898 106.191C325.303 106.432 325.779 106.557 326.319 106.557Z" fill="white"/>
<path d="M332.377 107.29V97.3749H333.51V105.869L338.643 97.3749H340.045V107.29H338.912V98.7965L333.779 107.29H332.377ZM336.179 95.9175C335.424 95.9175 334.84 95.7029 334.418 95.2827C333.995 94.8446 333.743 94.2276 333.645 93.423H334.346C334.409 93.9147 334.588 94.2902 334.903 94.5764C335.227 94.8625 335.658 94.9966 336.197 94.9966C336.737 94.9966 337.132 94.8625 337.456 94.5942C337.789 94.3081 338.004 93.9237 338.103 93.423H338.804C338.669 94.2276 338.391 94.8535 337.959 95.2827C337.528 95.7029 336.935 95.9175 336.179 95.9175Z" fill="white"/>
<path d="M347.2 97.3749H348.333V102.462L353.483 97.3749H354.994L351.047 101.255L355.227 107.29H353.807L350.22 102.087L348.333 103.947V107.29H347.2V97.3749Z" fill="white"/>
<path d="M360.099 107.559C359.389 107.559 358.76 107.425 358.212 107.156C357.672 106.87 357.214 106.495 356.845 106.021C356.477 105.547 356.189 104.993 356 104.367C355.812 103.723 355.713 103.043 355.713 102.328C355.713 101.613 355.812 100.951 356 100.308C356.189 99.6638 356.477 99.1094 356.845 98.6355C357.214 98.1617 357.672 97.7862 358.212 97.5C358.76 97.2139 359.398 97.0798 360.099 97.0798C360.801 97.0798 361.43 97.2229 361.969 97.5C362.517 97.7862 362.985 98.1617 363.353 98.6355C363.722 99.1094 364.01 99.6638 364.198 100.308C364.387 100.951 364.486 101.622 364.486 102.328C364.486 103.035 364.387 103.723 364.198 104.367C364.01 104.993 363.722 105.547 363.353 106.021C362.985 106.495 362.517 106.87 361.969 107.156C361.43 107.425 360.801 107.559 360.099 107.559ZM360.099 106.557C360.639 106.557 361.115 106.432 361.52 106.191C361.924 105.949 362.266 105.627 362.526 105.225C362.805 104.832 363.003 104.376 363.138 103.884C363.281 103.374 363.353 102.856 363.353 102.328C363.353 101.801 363.281 101.291 363.138 100.79C363.003 100.281 362.805 99.8247 362.526 99.4224C362.266 99.029 361.924 98.7071 361.52 98.4657C361.115 98.2243 360.639 98.0991 360.099 98.0991C359.56 98.0991 359.084 98.2243 358.679 98.4657C358.275 98.7071 357.933 99.029 357.654 99.4224C357.394 99.8158 357.187 100.272 357.043 100.79C356.908 101.291 356.845 101.801 356.845 102.328C356.845 102.856 356.908 103.374 357.043 103.884C357.187 104.385 357.394 104.832 357.654 105.225C357.933 105.627 358.275 105.94 358.679 106.191C359.084 106.441 359.56 106.557 360.099 106.557Z" fill="white"/>
<path d="M366.158 97.3749H367.668L371.129 105.922L374.554 97.3749H376.064V107.29H374.931V99.1273H374.877L371.623 107.29H370.617L367.354 99.1273H367.3V107.29H366.167V97.3749H366.158Z" fill="white"/>
<path d="M378.185 97.3749H385.601V107.29H384.469V98.3942H379.318V107.29H378.185V97.3749Z" fill="white"/>
<path d="M387.642 107.389C387.579 107.389 387.507 107.389 387.426 107.371C387.345 107.353 387.255 107.344 387.156 107.335C387.076 107.317 386.986 107.308 386.905 107.299C386.833 107.273 386.779 107.255 386.743 107.237V106.182C386.842 106.218 386.986 106.253 387.174 106.28C387.363 106.307 387.525 106.316 387.66 106.316C387.777 106.316 387.912 106.298 388.055 106.253C388.199 106.218 388.343 106.11 388.487 105.949C388.631 105.771 388.765 105.493 388.9 105.127C389.035 104.751 389.143 104.242 389.242 103.589C389.341 102.927 389.413 102.087 389.476 101.094C389.539 100.084 389.565 98.8501 389.565 97.3838H395.777V107.299H394.644V98.4031H390.662C390.662 99.8337 390.617 101.05 390.536 102.051C390.464 103.052 390.357 103.884 390.213 104.546C390.069 105.216 389.898 105.735 389.709 106.119C389.521 106.504 389.305 106.79 389.08 106.986C388.864 107.165 388.631 107.273 388.379 107.317C388.136 107.371 387.894 107.398 387.642 107.398V107.389Z" fill="white"/>
<path d="M401.665 107.559C400.919 107.559 400.28 107.425 399.759 107.156C399.229 106.87 398.797 106.495 398.465 106.021C398.132 105.538 397.88 104.975 397.71 104.349C397.557 103.723 397.476 103.052 397.476 102.328C397.476 101.675 397.557 101.032 397.71 100.406C397.88 99.78 398.132 99.2257 398.465 98.7339C398.797 98.2332 399.238 97.8398 399.759 97.5447C400.289 97.2407 400.928 97.0798 401.665 97.0798C402.402 97.0798 403.049 97.2408 403.57 97.5626C404.101 97.8845 404.523 98.3047 404.847 98.8323C405.18 99.3419 405.422 99.9409 405.566 100.62C405.71 101.282 405.773 101.962 405.746 102.659H398.6C398.6 103.106 398.653 103.562 398.761 104.027C398.878 104.492 399.067 104.903 399.319 105.279C399.57 105.654 399.885 105.958 400.272 106.2C400.658 106.441 401.116 106.566 401.656 106.566C402.483 106.566 403.13 106.334 403.597 105.878C404.065 105.413 404.388 104.805 404.568 104.036H405.701C405.458 105.162 405.018 106.03 404.371 106.647C403.732 107.264 402.824 107.568 401.656 107.568L401.665 107.559ZM404.613 101.64C404.604 101.175 404.523 100.737 404.38 100.316C404.245 99.8962 404.056 99.5207 403.804 99.1988C403.552 98.868 403.247 98.5998 402.887 98.412C402.528 98.2064 402.114 98.108 401.665 98.108C401.215 98.108 400.784 98.2064 400.424 98.412C400.065 98.5998 399.759 98.868 399.507 99.1988C399.256 99.5207 399.049 99.8962 398.896 100.334C398.752 100.755 398.653 101.193 398.609 101.64H404.622H404.613Z" fill="white"/>
<path d="M407.274 97.3749H408.407V102.462L413.557 97.3749H415.067L411.121 101.255L415.301 107.29H413.881L410.294 102.087L408.407 103.947V107.29H407.274V97.3749Z" fill="white"/>
<path d="M420.164 107.559C419.454 107.559 418.825 107.425 418.277 107.156C417.737 106.87 417.279 106.495 416.91 106.021C416.542 105.547 416.254 104.993 416.065 104.367C415.876 103.723 415.778 103.043 415.778 102.328C415.778 101.613 415.876 100.951 416.065 100.308C416.254 99.6638 416.542 99.1094 416.91 98.6355C417.279 98.1617 417.737 97.7862 418.277 97.5C418.825 97.2139 419.463 97.0798 420.164 97.0798C421.162 97.0798 421.998 97.3659 422.681 97.9292C423.373 98.4925 423.796 99.3419 423.922 100.486H422.789C422.636 99.7442 422.349 99.1631 421.926 98.7339C421.504 98.3137 420.919 98.0991 420.164 98.0991C419.625 98.0991 419.148 98.2243 418.744 98.4657C418.339 98.7071 417.998 99.029 417.719 99.4224C417.459 99.8158 417.252 100.272 417.108 100.79C416.973 101.291 416.91 101.801 416.91 102.328C416.91 102.856 416.973 103.374 417.108 103.884C417.252 104.385 417.459 104.832 417.719 105.225C417.998 105.627 418.339 105.94 418.744 106.191C419.148 106.441 419.625 106.557 420.164 106.557C420.515 106.557 420.847 106.486 421.153 106.343C421.468 106.2 421.737 106.012 421.98 105.762C422.223 105.502 422.42 105.207 422.573 104.859C422.726 104.51 422.825 104.134 422.861 103.723H423.994C423.841 104.93 423.427 105.869 422.753 106.548C422.079 107.21 421.216 107.55 420.155 107.55L420.164 107.559Z" fill="white"/>
<path d="M144.82 29.6832C147.753 29.6832 150.268 30.7196 152.359 32.7924C154.449 34.846 155.498 37.3219 155.498 40.2328C155.498 43.1437 153.98 45.0758 150.937 45.7859C153.137 46.0994 155.626 47.6476 158.411 50.4306C161.222 53.2135 162.624 57.0649 162.624 61.9782C162.624 66.8916 160.881 71.146 157.395 74.7222C154.121 78.0938 150.834 79.7955 147.541 79.8403V79.9043H134.555V29.6896H144.82V29.6832ZM141.116 50.808V73.3723H147.548V73.2764C148.898 73.1932 150.577 72.112 152.584 70.0456C154.803 67.7872 155.909 65.0939 155.909 61.9782C155.909 58.8626 154.803 56.278 152.584 54.1028C150.384 51.9084 147.734 50.808 144.634 50.808H141.116ZM141.116 36.1767V44.1161H145.393C146.364 44.033 147.2 43.6683 147.895 43.0157C148.654 42.3248 149.033 41.3972 149.033 40.22C149.033 39.0428 148.635 38.0832 147.831 37.3347C147.046 36.5606 146.049 36.1703 144.82 36.1703H141.116V36.1767Z" fill="white"/>
<path d="M193.298 65.273V60.5004C192.919 58.4723 191.902 56.6298 190.256 54.9793C188.037 52.8041 185.374 51.7165 182.274 51.7165C179.174 51.7165 176.479 52.8041 174.26 54.9793C172.06 57.1544 170.966 59.7902 170.966 62.8867C170.966 65.9831 172.066 68.5997 174.26 70.7941C176.479 72.9693 179.148 74.0569 182.274 74.0569C185.4 74.0569 188.037 72.9693 190.256 70.7941C191.902 69.1435 192.919 67.301 193.298 65.273ZM193.298 49.8612V47.6028H199.891V79.9299H193.298V75.8802C190.127 79.1238 186.455 80.7424 182.274 80.7424C177.289 80.7424 173.031 79.0086 169.506 75.5347C166.001 72.0416 164.245 67.8256 164.245 62.8867C164.245 57.9477 166.001 53.7445 169.506 50.2706C173.031 46.7775 177.289 45.031 182.274 45.031C186.455 45.031 190.134 46.6432 193.298 49.8612Z" fill="white"/>
<path d="M211.359 47.6028V79.8979H204.799V47.6028H211.359ZM208.066 34.3278C209.333 34.3278 210.42 34.7693 211.327 35.6457C212.234 36.5222 212.691 37.6034 212.691 38.8765C212.691 40.1496 212.234 41.2308 211.327 42.1073C210.42 42.9838 209.333 43.4252 208.066 43.4252C206.799 43.4252 205.744 42.9838 204.837 42.1073C203.93 41.2308 203.474 40.1496 203.474 38.8765C203.474 37.6034 203.93 36.5222 204.837 35.6457C205.744 34.7693 206.825 34.3278 208.066 34.3278Z" fill="white"/>
<path d="M241.396 35.5817C236.052 35.5817 231.491 37.4562 227.709 41.1988C223.953 44.9222 222.068 49.4325 222.068 54.7233C222.068 60.0142 223.959 64.5372 227.741 68.2798C231.523 72.0224 236.071 73.8969 241.396 73.8969C246.722 73.8969 251.289 72.0224 255.052 68.2798C258.834 64.5372 260.725 60.0142 260.725 54.7233C260.725 49.4325 258.834 44.9222 255.052 41.1988C251.289 37.4562 246.741 35.5817 241.396 35.5817ZM252.234 78.1705C252.723 78.4648 253.225 78.7975 253.752 79.175C255.232 79.9491 256.235 80.4225 256.762 80.5888C256.994 80.6528 257.219 80.6848 257.431 80.6848C257.792 80.6848 258.152 80.5824 258.506 80.3713C259.052 80.0578 259.412 79.5972 259.586 78.9894C259.65 78.8039 259.721 78.0298 259.811 76.6671H266.43C266.282 78.7207 266.115 80.077 265.922 80.7488C265.246 83.0711 263.844 84.8176 261.709 85.9884C260.358 86.7625 258.943 87.1527 257.464 87.1527C256.64 87.1527 255.817 87.0376 254.994 86.8073C253.643 86.449 251.836 85.5534 249.578 84.1075C247.764 83.1671 246.503 82.5913 245.809 82.3801C245.41 82.2778 245.031 82.2266 244.67 82.2266C244.034 82.2266 243.423 82.3929 242.831 82.732C241.86 83.2758 241.223 84.0947 240.927 85.1823C240.882 85.2847 240.811 85.9756 240.702 87.2551H234.083C234.251 85.2655 234.424 83.9668 234.591 83.3654C234.952 82.0923 235.498 80.9599 236.238 79.9747C231.253 79.0342 226.86 76.6799 223.059 72.9117C217.991 67.8896 215.456 61.8311 215.456 54.7425C215.456 47.654 217.991 41.5955 223.059 36.5733C228.127 31.5512 234.244 29.0434 241.403 29.0434C248.562 29.0434 254.678 31.5512 259.747 36.5733C264.815 41.5955 267.349 47.654 267.349 54.7425C267.349 61.8311 264.815 67.8896 259.747 72.9117C257.464 75.1701 254.962 76.9294 252.241 78.1833L252.234 78.1705Z" fill="white"/>
<path d="M299.188 65.273V60.5004C298.808 58.4723 297.792 56.6298 296.145 54.9793C293.926 52.8041 291.27 51.7165 288.163 51.7165C285.057 51.7165 282.368 52.8041 280.149 54.9793C277.949 57.1544 276.856 59.7902 276.856 62.8867C276.856 65.9831 277.956 68.5997 280.149 70.7941C282.368 72.9693 285.037 74.0569 288.163 74.0569C291.289 74.0569 293.926 72.9693 296.145 70.7941C297.792 69.1435 298.808 67.301 299.188 65.273ZM299.188 49.8612V47.6028H305.774V79.9299H299.188V75.8802C296.017 79.1238 292.344 80.7424 288.163 80.7424C283.178 80.7424 278.921 79.0086 275.396 75.5347C271.89 72.0416 270.134 67.8256 270.134 62.8867C270.134 57.9477 271.884 53.7445 275.396 50.2706C278.921 46.7775 283.178 45.031 288.163 45.031C292.344 45.031 296.017 46.6432 299.188 49.8612Z" fill="white"/>
<path d="M338.448 65.273V60.4684C338.069 58.4403 337.046 56.5978 335.374 54.9473C333.181 52.7529 330.518 51.6525 327.392 51.6525C324.266 51.6525 321.597 52.7529 319.378 54.9473C317.178 57.1416 316.084 59.7775 316.084 62.8547C316.084 65.9319 317.184 68.5869 319.378 70.7621C321.597 72.9373 324.266 74.0249 327.392 74.0249C330.518 74.0249 333.181 72.9373 335.374 70.7621C337.04 69.1115 338.069 67.2754 338.448 65.273ZM338.448 49.8292V29.6832H345.035V79.8979H338.448V75.8802C335.277 79.1238 331.592 80.7424 327.392 80.7424C322.407 80.7424 318.149 78.9958 314.624 75.5027C311.119 72.0097 309.363 67.7936 309.363 62.8547C309.363 57.9158 311.119 53.6997 314.624 50.2066C318.149 46.7135 322.407 44.967 327.392 44.967C331.592 44.967 335.277 46.5856 338.448 49.8292Z" fill="white"/>
<path d="M377.638 65.273V60.5004C377.259 58.4723 376.243 56.6298 374.596 54.9793C372.377 52.8041 369.721 51.7165 366.614 51.7165C363.507 51.7165 360.819 52.8041 358.6 54.9793C356.406 57.1544 355.307 59.7902 355.307 62.8867C355.307 65.9831 356.406 68.5997 358.6 70.7941C360.819 72.9693 363.488 74.0569 366.614 74.0569C369.74 74.0569 372.383 72.9693 374.596 70.7941C376.243 69.1435 377.259 67.301 377.638 65.273ZM377.638 49.8612V47.6028H384.225V79.9299H377.638V75.8802C374.467 79.1238 370.795 80.7424 366.614 80.7424C361.629 80.7424 357.371 79.0086 353.847 75.5347C350.341 72.0416 348.585 67.8256 348.585 62.8867C348.585 57.9477 350.341 53.7445 353.847 50.2706C357.371 46.7775 361.629 45.031 366.614 45.031C370.795 45.031 374.474 46.6432 377.638 49.8612Z" fill="white"/>
<path d="M388.605 47.6028H395.165V50.6161C396.433 47.4557 398.87 45.8755 402.485 45.8755C406.1 45.8755 408.094 47.6732 408.538 51.275C409.573 47.6796 412.422 45.8755 417.092 45.8755C421.762 45.8755 424 48.6456 424 54.1923V79.8979H417.414V57.1736C417.414 53.994 416.114 52.401 413.516 52.401C412.442 52.401 411.509 52.7785 410.731 53.5334C409.953 54.2883 409.56 56.8218 409.56 61.1273V79.8979H403L403.032 57.1736C403.032 53.994 401.72 52.401 399.102 52.401C398.021 52.401 397.095 52.7785 396.31 53.5334C395.635 54.1796 395.256 55.9005 395.172 58.6835V79.8979H388.611V47.6028H388.605Z" fill="white"/>
<path fill-rule="evenodd" clip-rule="evenodd" d="M56.5021 0C72.0905 0 85.4067 5.52163 96.4424 16.5608C107.478 27.5999 113 40.9172 113 56.5129C113 72.1085 107.482 85.4258 96.4424 96.465C91.4772 101.432 86.0253 105.296 80.0951 108.059C81.1508 108.701 82.256 109.439 83.4066 110.267C86.6274 111.969 88.809 113.005 89.9596 113.374C90.4668 113.51 90.9493 113.581 91.4071 113.581C92.1906 113.581 92.97 113.349 93.7536 112.889C94.9495 112.197 95.7331 111.187 96.1001 109.853C96.2362 109.439 96.4012 107.736 96.5826 104.745H111C110.678 109.252 110.311 112.243 109.895 113.717C108.422 118.825 105.367 122.665 100.719 125.241C97.7744 126.944 94.6938 127.793 91.473 127.793C89.6791 127.793 87.8852 127.54 86.0913 127.035C83.1468 126.252 79.2167 124.276 74.2969 121.099C70.342 119.028 67.6037 117.764 66.0861 117.305C65.2118 117.077 64.3829 116.961 63.6035 116.961C62.222 116.961 60.8899 117.33 59.6033 118.067C57.4877 119.264 56.1062 121.058 55.4628 123.448C55.3721 123.68 55.2113 125.196 54.9803 128H40.563C40.9301 123.63 41.2971 120.78 41.6683 119.442C42.4518 116.638 43.6477 114.152 45.2561 111.99C34.4019 109.919 24.8385 104.745 16.5576 96.465C5.52195 85.4258 0 72.1085 0 56.5129C0 40.9172 5.51783 27.5999 16.5576 16.5608C27.5974 5.52163 40.9136 0 56.5021 0ZM65.884 15.3926C66.3541 15.7862 66.816 16.2087 67.2655 16.656C70.9565 20.3136 72.804 24.7334 72.804 29.9195C72.804 35.1057 70.1193 38.5562 64.7499 39.8237C68.6264 40.3829 73.0308 43.1416 77.9507 48.1041C82.9118 53.0665 85.3902 59.9302 85.3902 68.6952C85.3902 77.4603 82.3138 85.0365 76.1609 91.4156C74.2144 93.437 72.2679 95.1229 70.3173 96.4732C76.2021 94.4642 81.5055 91.08 86.2398 86.3247C94.4711 78.0899 98.5868 68.1526 98.5868 56.517C98.5868 44.8814 94.4711 34.9648 86.2398 26.7797C80.3508 20.8563 73.5669 17.062 65.8881 15.4009L65.884 15.3926ZM35.8205 19.7254C32.5791 21.5853 29.5356 23.934 26.6984 26.7756C18.5124 34.9648 14.4214 44.8772 14.4214 56.5129C14.4214 68.1485 18.5371 78.0858 26.7685 86.3206C29.5892 89.1414 32.608 91.4777 35.8205 93.3334V19.7254ZM47.4005 89.0089H58.7579V88.8432C61.1456 88.6941 64.1107 86.7721 67.6532 83.0813C71.5709 79.0509 73.5257 74.2583 73.5257 68.6994C73.5257 63.1405 71.5668 58.5343 67.6532 54.653C63.7767 50.7344 59.0919 48.7793 53.6112 48.7793H47.4005V89.013V89.0089ZM47.4005 36.8578H54.9515C56.667 36.7087 58.1393 36.0542 59.3723 34.8985C60.7167 33.6683 61.3848 32.0072 61.3848 29.9195C61.3848 27.8319 60.6755 26.1128 59.261 24.7707C57.8795 23.3913 56.1103 22.6996 53.9452 22.6996H47.4005V36.8578Z" fill="white"/>
</svg>
