<svg width="596" height="160" viewBox="0 0 596 160" fill="none" xmlns="http://www.w3.org/2000/svg">
<path d="M180.756 46.0205C185.113 46.0205 188.849 47.5602 191.954 50.6394C195.059 53.6902 196.617 57.3682 196.617 61.6925C196.617 66.0168 194.362 68.887 189.842 69.942C193.11 70.4077 196.808 72.7076 200.945 76.8418C205.121 80.976 207.204 86.6974 207.204 93.9965C207.204 101.295 204.614 107.616 199.436 112.928C194.572 117.937 189.689 120.465 184.797 120.531V120.627H165.506V46.03H180.756V46.0205ZM175.252 77.4025V110.923H184.807V110.78C186.813 110.657 189.307 109.051 192.288 105.981C195.585 102.626 197.228 98.6249 197.228 93.9965C197.228 89.368 195.585 85.5284 192.288 82.2971C189.021 79.0372 185.084 77.4025 180.478 77.4025H175.252ZM175.252 55.667V67.4614H181.606C183.049 67.3379 184.291 66.7961 185.323 65.8267C186.45 64.8003 187.014 63.4222 187.014 61.6735C187.014 59.9248 186.422 58.4992 185.227 57.3872C184.062 56.2372 182.581 55.6575 180.756 55.6575H175.252V55.667Z" fill="#515151"/>
<path d="M252.772 98.8913V91.8014C252.208 88.7886 250.698 86.0515 248.252 83.5995C244.956 80.3681 241 78.7524 236.394 78.7524C231.789 78.7524 227.785 80.3681 224.489 83.5995C221.221 86.8308 219.597 90.7464 219.597 95.3463C219.597 99.9462 221.23 103.833 224.489 107.093C227.785 110.325 231.751 111.94 236.394 111.94C241.038 111.94 244.956 110.325 248.252 107.093C250.698 104.641 252.208 101.904 252.772 98.8913ZM252.772 75.9963V72.6414H262.565V120.665H252.772V114.649C248.061 119.467 242.605 121.872 236.394 121.872C228.989 121.872 222.664 119.296 217.428 114.136C212.22 108.946 209.612 102.683 209.612 95.3463C209.612 88.0093 212.22 81.7652 217.428 76.6045C222.664 71.4154 228.989 68.8208 236.394 68.8208C242.605 68.8208 248.07 71.2158 252.772 75.9963Z" fill="#515151"/>
<path d="M279.602 72.6411V120.617H269.856V72.6411H279.602ZM274.71 52.9204C276.592 52.9204 278.207 53.5762 279.554 54.8782C280.901 56.1803 281.58 57.7864 281.58 59.6777C281.58 61.569 280.901 63.1752 279.554 64.4772C278.207 65.7793 276.592 66.435 274.71 66.435C272.828 66.435 271.26 65.7793 269.913 64.4772C268.566 63.1752 267.888 61.569 267.888 59.6777C267.888 57.7864 268.566 56.1803 269.913 54.8782C271.26 53.5762 272.866 52.9204 274.71 52.9204Z" fill="#515151"/>
<path d="M324.224 54.7833C316.284 54.7833 309.509 57.568 303.891 63.1278C298.311 68.6591 295.511 75.3594 295.511 83.2192C295.511 91.0789 298.32 97.7982 303.939 103.358C309.557 108.918 316.313 111.703 324.224 111.703C332.136 111.703 338.92 108.918 344.509 103.358C350.128 97.7982 352.937 91.0789 352.937 83.2192C352.937 75.3594 350.128 68.6591 344.509 63.1278C338.92 57.568 332.164 54.7833 324.224 54.7833ZM340.324 118.051C341.05 118.488 341.796 118.983 342.579 119.543C344.777 120.693 346.267 121.397 347.051 121.644C347.395 121.739 347.729 121.786 348.045 121.786C348.58 121.786 349.115 121.634 349.64 121.32C350.453 120.855 350.988 120.171 351.246 119.268C351.341 118.992 351.446 117.842 351.58 115.818H361.412C361.192 118.868 360.944 120.883 360.657 121.881C359.654 125.331 357.571 127.926 354.399 129.665C352.392 130.815 350.29 131.395 348.092 131.395C346.869 131.395 345.646 131.224 344.423 130.881C342.417 130.349 339.732 129.019 336.378 126.871C333.684 125.474 331.811 124.618 330.779 124.305C330.186 124.153 329.623 124.077 329.088 124.077C328.142 124.077 327.234 124.324 326.355 124.827C324.912 125.635 323.966 126.852 323.527 128.467C323.46 128.62 323.355 129.646 323.192 131.547H313.36C313.608 128.591 313.866 126.662 314.115 125.768C314.65 123.877 315.462 122.195 316.561 120.731C309.156 119.334 302.63 115.837 296.983 110.239C289.453 102.778 285.689 93.7781 285.689 83.2477C285.689 72.7173 289.453 63.717 296.983 56.2564C304.512 48.7958 313.599 45.0703 324.234 45.0703C334.868 45.0703 343.955 48.7958 351.485 56.2564C359.014 63.717 362.779 72.7173 362.779 83.2477C362.779 93.7781 359.014 102.778 351.485 110.239C348.092 113.594 344.376 116.207 340.334 118.07L340.324 118.051Z" fill="#515151"/>
<path d="M410.076 98.8913V91.8014C409.512 88.7886 408.003 86.0515 405.556 83.5995C402.26 80.3681 398.314 78.7524 393.699 78.7524C389.084 78.7524 385.09 80.3681 381.793 83.5995C378.525 86.8308 376.901 90.7464 376.901 95.3463C376.901 99.9462 378.535 103.833 381.793 107.093C385.09 110.325 389.055 111.94 393.699 111.94C398.342 111.94 402.26 110.325 405.556 107.093C408.003 104.641 409.512 101.904 410.076 98.8913ZM410.076 75.9963V72.6414H419.86V120.665H410.076V114.649C405.365 119.467 399.909 121.872 393.699 121.872C386.294 121.872 379.968 119.296 374.732 114.136C369.525 108.946 366.916 102.683 366.916 95.3463C366.916 88.0093 369.515 81.7652 374.732 76.6045C379.968 71.4154 386.294 68.8208 393.699 68.8208C399.909 68.8208 405.365 71.2158 410.076 75.9963Z" fill="#515151"/>
<path d="M468.4 98.891V91.7535C467.836 88.7407 466.317 86.0036 463.832 83.5516C460.574 80.2917 456.618 78.6571 451.975 78.6571C447.331 78.6571 443.366 80.2917 440.069 83.5516C436.801 86.8114 435.177 90.7271 435.177 95.2985C435.177 99.8699 436.811 103.814 440.069 107.045C443.366 110.277 447.331 111.892 451.975 111.892C456.618 111.892 460.574 110.277 463.832 107.045C466.307 104.593 467.836 101.866 468.4 98.891ZM468.4 75.9484V46.0205H478.184V120.617H468.4V114.649C463.689 119.467 458.214 121.872 451.975 121.872C444.569 121.872 438.244 119.277 433.008 114.088C427.8 108.899 425.192 102.636 425.192 95.2985C425.192 87.9614 427.8 81.6983 433.008 76.5092C438.244 71.32 444.569 68.7255 451.975 68.7255C458.214 68.7255 463.689 71.1299 468.4 75.9484Z" fill="#515151"/>
<path d="M526.618 98.8913V91.8014C526.054 88.7886 524.545 86.0515 522.099 83.5995C518.802 80.3681 514.856 78.7524 510.241 78.7524C505.626 78.7524 501.632 80.3681 498.335 83.5995C495.077 86.8308 493.443 90.7464 493.443 95.3463C493.443 99.9462 495.077 103.833 498.335 107.093C501.632 110.325 505.597 111.94 510.241 111.94C514.885 111.94 518.812 110.325 522.099 107.093C524.545 104.641 526.054 101.904 526.618 98.8913ZM526.618 75.9963V72.6414H536.403V120.665H526.618V114.649C521.908 119.467 516.452 121.872 510.241 121.872C502.836 121.872 496.51 119.296 491.274 114.136C486.067 108.946 483.458 102.683 483.458 95.3463C483.458 88.0093 486.067 81.7652 491.274 76.6045C496.51 71.4154 502.836 68.8208 510.241 68.8208C516.452 68.8208 521.917 71.2158 526.618 75.9963Z" fill="#515151"/>
<path d="M542.91 72.6413H552.656V77.1176C554.538 72.4227 558.159 70.0752 563.529 70.0752C568.899 70.0752 571.861 72.7458 572.521 78.0965C574.059 72.7553 578.292 70.0752 585.229 70.0752C592.166 70.0752 595.491 74.1904 595.491 82.4303V120.617H585.706V86.8592C585.706 82.1357 583.776 79.7692 579.916 79.7692C578.32 79.7692 576.935 80.33 575.779 81.4514C574.623 82.5729 574.04 86.3364 574.04 92.7326V120.617H564.294L564.341 86.8592C564.341 82.1357 562.392 79.7692 558.503 79.7692C556.898 79.7692 555.522 80.33 554.356 81.4514C553.353 82.4113 552.789 84.9679 552.665 89.1021V120.617H542.919V72.6413H542.91Z" fill="#515151"/>
<path fill-rule="evenodd" clip-rule="evenodd" d="M70.0026 0C89.3157 0 105.814 6.90204 119.486 20.7009C133.159 34.4999 140 51.1466 140 70.6411C140 90.1356 133.164 106.782 119.486 120.581C113.335 126.789 106.58 131.62 99.2329 135.074C100.541 135.876 101.91 136.798 103.336 137.834C107.326 139.962 110.029 141.256 111.454 141.717C112.083 141.888 112.681 141.976 113.248 141.976C114.218 141.976 115.184 141.686 116.155 141.111C117.637 140.247 118.607 138.983 119.062 137.316C119.231 136.798 119.435 134.67 119.66 130.932H137.522C137.123 136.565 136.669 140.304 136.153 142.147C134.329 148.531 130.543 153.331 124.785 156.552C121.136 158.68 117.32 159.741 113.329 159.741C111.107 159.741 108.884 159.425 106.662 158.794C103.014 157.815 98.1446 155.345 92.0492 151.374C87.1494 148.785 83.7568 147.206 81.8766 146.631C80.7934 146.346 79.7664 146.201 78.8008 146.201C77.0892 146.201 75.4389 146.662 73.8447 147.584C71.2237 149.08 69.5121 151.322 68.715 154.31C68.6026 154.6 68.4033 156.495 68.1172 160H50.2551C50.7098 154.537 51.1646 150.975 51.6244 149.303C52.5952 145.797 54.0769 142.691 56.0695 139.988C42.6218 137.399 30.7733 130.932 20.5138 120.581C6.84136 106.782 0 90.1356 0 70.6411C0 51.1466 6.83625 34.4999 20.5138 20.7009C34.1915 6.90204 50.6894 0 70.0026 0ZM81.6262 19.2408C82.2087 19.7327 82.7809 20.2608 83.3378 20.82C87.9107 25.3921 90.1996 30.9168 90.1996 37.3994C90.1996 43.8821 86.8735 48.1952 80.2212 49.7796C85.0239 50.4786 90.4806 53.9271 96.576 60.1301C102.723 66.3331 105.793 74.9128 105.793 85.8691C105.793 96.8253 101.982 106.296 94.3586 114.269C91.947 116.796 89.5354 118.904 87.1187 120.592C94.4097 118.08 100.98 113.85 106.846 107.906C117.044 97.6124 122.143 85.1908 122.143 70.6463C122.143 56.1017 117.044 43.706 106.846 33.4746C99.5496 26.0704 91.1448 21.3275 81.6313 19.2512L81.6262 19.2408ZM44.3794 24.6568C40.3635 26.9816 36.5928 29.9175 33.0776 33.4695C22.9357 43.706 17.8672 56.0966 17.8672 70.6411C17.8672 85.1856 22.9663 97.6072 33.1645 107.901C36.6592 111.427 40.3993 114.347 44.3794 116.667V24.6568ZM58.7263 111.261H72.7973V111.054C75.7556 110.868 79.4292 108.465 83.8181 103.852C88.6719 98.8136 91.0938 92.8229 91.0938 85.8742C91.0938 78.9256 88.6668 73.1679 83.8181 68.3162C79.0154 63.418 73.2112 60.9741 66.4209 60.9741H58.7263V111.266V111.261ZM58.7263 46.0723H68.0815C70.2069 45.8859 72.0309 45.0678 73.5586 43.6232C75.2243 42.0854 76.052 40.0091 76.052 37.3994C76.052 34.7898 75.1732 32.641 73.4207 30.9634C71.7091 29.2392 69.5172 28.3745 66.8348 28.3745H58.7263V46.0723Z" fill="#558860"/>
</svg>
