<svg width="74" height="74" viewBox="0 0 74 74" fill="none" xmlns="http://www.w3.org/2000/svg">
<path d="M12.5237 9.24943C18.0908 4.32566 25.0163 1.19984 32.3915 0.282121C32.6782 2.27075 33.0389 4.48598 33.5014 6.79371C34.3339 10.956 35.49 15.4882 37.0902 19.6365C38.3666 22.9617 39.9714 26.1527 42.0016 28.7241L36.9977 33.728L12.5237 9.24943ZM9.24943 12.5284C4.32399 18.0948 1.19653 25.0204 0.277496 32.3961C2.26612 32.6828 4.47673 33.0436 6.78446 33.506C10.9467 34.3385 15.4789 35.4947 19.6273 37.0948C22.9524 38.3712 26.1481 39.976 28.7148 42.0063L33.728 36.9977L9.24943 12.5284ZM25.4174 45.3083C23.4288 43.8284 20.876 42.5288 17.9716 41.4097C14.147 39.939 9.89227 38.8476 5.87802 38.0429C3.9278 37.6517 1.96781 37.3109 1.36088e-05 37.0208C-0.00772186 46.0274 3.28252 54.7252 9.24943 61.4717L25.4174 45.3083ZM12.5145 64.7459L28.6871 48.578C30.167 50.5666 31.4619 53.1194 32.5811 56.0237C34.0517 59.8438 35.1432 64.1031 35.9479 68.1127C36.3641 70.1846 36.6971 72.1825 36.9653 74C27.9603 74.0066 19.2644 70.7164 12.5191 64.7506M31.9891 45.2805L36.9977 40.272L61.4716 64.7459C55.9052 69.6714 48.9796 72.7989 41.6039 73.7179C41.3125 71.7293 40.9472 69.514 40.4893 67.2063C39.6569 63.0441 38.5007 58.5118 36.9052 54.3635C35.6241 51.0429 34.024 47.8519 31.9891 45.2805ZM64.7459 61.4763C69.6714 55.9098 72.7988 48.9842 73.7179 41.6085C71.7293 41.3218 69.514 40.9611 67.2063 40.4986C63.044 39.6661 58.5118 38.51 54.3635 36.9144C51.0429 35.6334 47.8473 34.0332 45.2759 31.9984L40.2674 36.9977L64.7459 61.4763ZM48.5733 28.701C50.562 30.1809 53.1194 31.4758 56.0191 32.595C59.8438 34.0656 64.1031 35.1571 68.1127 35.9618C70.1846 36.378 72.1825 36.711 74 36.9792C74.0077 27.9726 70.7175 19.2748 64.7506 12.5284L48.5733 28.701ZM61.4716 9.24943C54.7252 3.28252 46.0274 -0.00772186 37.0208 1.36088e-05C37.289 1.81752 37.622 3.8154 38.0382 5.88727C38.8429 9.90152 39.9344 14.1562 41.405 17.9763C42.5242 20.8806 43.8191 23.4334 45.299 25.422L61.4716 9.24943Z" fill="url(#paint0_linear_598_572312)"/>
<defs>
<linearGradient id="paint0_linear_598_572312" x1="37" y1="0" x2="37" y2="74" gradientUnits="userSpaceOnUse">
<stop stop-color="#0E6131"/>
<stop offset="1" stop-color="#95E014"/>
</linearGradient>
</defs>
</svg>
