<svg width="82" height="86" viewBox="0 0 82 86" fill="none" xmlns="http://www.w3.org/2000/svg">
<path fill-rule="evenodd" clip-rule="evenodd" d="M50.7409 0.291384C52.6676 0.12748 55.2664 0 58.7084 0C62.1504 0 64.7473 0.12748 66.6759 0.291384C71.1341 0.670183 74.3539 4.17407 74.6343 8.49566C74.7108 9.6612 74.7618 11.018 74.7618 12.5404C74.7618 14.0629 74.7108 15.4215 74.6343 16.5852C74.3539 20.9086 71.1341 24.4107 66.6759 24.7913C65.236 24.9098 63.7931 24.9894 62.3489 25.0299V32.4747C64.3978 32.9074 66.4368 33.3858 68.4643 33.9098C74.5834 35.5015 78.3112 41.1361 78.3112 47.0876V78.3021C79.2772 78.3021 80.2037 78.6859 80.8867 79.3689C81.5698 80.052 81.9535 80.9784 81.9535 81.9444C81.9535 82.9104 81.5698 83.8369 80.8867 84.5199C80.2037 85.203 79.2772 85.5867 78.3112 85.5867H52.7642C52.5883 85.5995 52.4118 85.5995 52.236 85.5867H29.7157C29.5399 85.5995 29.3634 85.5995 29.1876 85.5867H3.6423C2.6763 85.5867 1.74987 85.203 1.0668 84.5199C0.383741 83.8369 0 82.9104 0 81.9444C0 80.9784 0.383741 80.052 1.0668 79.3689C1.74987 78.6859 2.6763 78.3021 3.6423 78.3021V39.2221C3.6423 32.3454 9.22777 26.5888 16.3066 26.9111C27.8108 27.432 42.3126 28.8561 55.0643 31.0761V25.0299C53.6212 24.9908 52.1795 24.9119 50.7409 24.7931C46.2827 24.4107 43.0629 20.9086 42.7824 16.5852C42.6953 15.2393 42.6522 13.891 42.6531 12.5423C42.6531 11.018 42.706 9.6612 42.7806 8.49566C43.0629 4.17407 46.2827 0.670183 50.7409 0.289563M58.7084 7.28278C55.4413 7.28278 53.0519 7.40297 51.3601 7.54684C50.6425 7.60876 50.1089 8.0859 50.0507 8.96734C49.9741 10.1562 49.9364 11.3473 49.9377 12.5386C49.9377 13.8935 49.9851 15.0937 50.0507 16.1117C50.1089 16.9913 50.6425 17.4703 51.3619 17.5322C53.0519 17.6761 55.4413 17.7963 58.7084 17.7963C61.9755 17.7963 64.3649 17.6761 66.0567 17.5322C66.7743 17.4703 67.3079 16.9913 67.3661 16.1117C67.517 13.7326 67.517 11.3464 67.3661 8.96734C67.3079 8.0859 66.7743 7.60876 66.0549 7.54684C64.3649 7.40115 61.9755 7.28278 58.7084 7.28278ZM10.9269 78.2985V58.8031H25.8075V78.2985H10.9269ZM71.0248 78.2985H56.1424V58.8031H71.0266L71.0248 78.2985ZM48.8596 58.8177V58.8031H33.0939V78.2985H48.8596V58.8177Z" fill="url(#paint0_linear_600_574591)"/>
<defs>
<linearGradient id="paint0_linear_600_574591" x1="40.9768" y1="0" x2="40.9768" y2="85.5963" gradientUnits="userSpaceOnUse">
<stop stop-color="#0E6131"/>
<stop offset="1" stop-color="#95E014"/>
</linearGradient>
</defs>
</svg>
