<svg width="79" height="79" viewBox="0 0 79 79" fill="none" xmlns="http://www.w3.org/2000/svg">
<path fill-rule="evenodd" clip-rule="evenodd" d="M67.2039 0.952948C61.4739 0.486984 52.3789 0 39.4142 0C26.4496 0 17.3545 0.486984 11.6246 0.952948C5.86484 1.41891 1.41891 5.86484 0.952948 11.6246C0.486984 17.3545 0 26.4496 0 39.4142C0 52.3789 0.486984 61.4739 0.952948 67.2039C1.42066 72.9636 5.86484 77.4078 11.6246 77.8755C17.3545 78.3415 26.4496 78.8284 39.4142 78.8284C52.3789 78.8284 61.4739 78.3415 67.2039 77.8755C72.9636 77.4078 77.4078 72.9636 77.8755 67.2039C78.3415 61.4739 78.8284 52.3789 78.8284 39.4142C78.8284 26.4496 78.3415 17.3545 77.8755 11.6246C77.4078 5.86484 72.9636 1.42066 67.2039 0.952948ZM61.7051 23.4085C61.5551 23.2163 61.3632 23.0609 61.144 22.9539C60.9249 22.847 60.6842 22.7914 60.4404 22.7914C60.1965 22.7914 59.9559 22.847 59.7367 22.9539C59.5176 23.0609 59.3257 23.2163 59.1756 23.4085C56.7302 26.5091 55.0643 29.678 54.1797 31.5647C54.075 31.7731 54.0207 32.0032 54.0212 32.2365C54.0218 32.4698 54.0771 32.6996 54.1828 32.9076C54.2885 33.1155 54.4415 33.2958 54.6297 33.4337C54.8178 33.5717 55.0356 33.6635 55.2657 33.7018C58.687 34.3127 62.1898 34.3092 65.6098 33.6913C65.8396 33.6525 66.0571 33.5603 66.2447 33.4222C66.4324 33.284 66.5851 33.1038 66.6904 32.8959C66.7957 32.688 66.8507 32.4583 66.8511 32.2253C66.8514 31.9922 66.797 31.7624 66.6924 31.5541C65.8112 29.6693 64.1488 26.5021 61.7051 23.4085ZM59.1756 55.4199C59.3257 55.6121 59.5176 55.7676 59.7367 55.8745C59.9559 55.9814 60.1965 56.037 60.4404 56.037C60.6842 56.037 60.9249 55.9814 61.144 55.8745C61.3632 55.7676 61.5551 55.6121 61.7051 55.4199C64.1488 52.3263 65.8112 49.1592 66.6924 47.2743C66.797 47.0661 66.8514 46.8362 66.8511 46.6032C66.8507 46.3701 66.7957 46.1404 66.6904 45.9325C66.5851 45.7247 66.4324 45.5444 66.2447 45.4062C66.0571 45.2681 65.8396 45.1759 65.6098 45.1372C62.1899 44.5187 58.6871 44.5145 55.2657 45.1249C55.0356 45.1632 54.8178 45.255 54.6297 45.393C54.4415 45.5309 54.2885 45.7111 54.1828 45.9191C54.0771 46.127 54.0218 46.3569 54.0212 46.5902C54.0207 46.8234 54.075 47.0536 54.1797 47.262C55.0643 49.1504 56.7302 52.3211 59.1756 55.4199ZM28.9055 27.152C27.0471 27.152 25.2649 26.4138 23.9508 25.0997C22.6368 23.7857 21.8985 22.0034 21.8985 20.145C21.8985 18.2867 22.6368 16.5044 23.9508 15.1904C25.2649 13.8763 27.0471 13.1381 28.9055 13.1381C30.7639 13.1381 32.5461 13.8763 33.8602 15.1904C35.1743 16.5044 35.9125 18.2867 35.9125 20.145C35.9125 22.0034 35.1743 23.7857 33.8602 25.0997C32.5461 26.4138 30.7639 27.152 28.9055 27.152ZM35.9528 30.8482C38.0549 30.9603 39.8416 32.374 40.4022 34.4042C41.2203 37.3647 42.3186 41.8526 42.7425 45.9482C42.9247 47.7245 41.5759 49.224 39.7943 49.3781C38.8554 49.4587 37.7518 49.5463 36.5606 49.6286L35.2959 62.5793C35.1417 64.1558 33.947 65.4294 32.367 65.5537C30.0622 65.7336 27.747 65.7336 25.4423 65.5537C23.8622 65.4294 22.6658 64.1558 22.5117 62.5793L21.2504 49.6286C20.0575 49.548 18.9556 49.4587 18.0132 49.3781C16.2334 49.224 14.8828 47.7245 15.0667 45.9482C15.4907 41.8526 16.589 37.3647 17.4071 34.4042C17.6792 33.4182 18.256 32.5433 19.0551 31.9047C19.8542 31.266 20.8347 30.8963 21.8565 30.8482C24.2035 30.7234 26.5534 30.6591 28.9038 30.6555C31.5752 30.6555 34.0661 30.7501 35.9528 30.8482Z" fill="url(#paint0_linear_593_570055)"/>
<defs>
<linearGradient id="paint0_linear_593_570055" x1="39.4142" y1="0" x2="39.4142" y2="78.8284" gradientUnits="userSpaceOnUse">
<stop stop-color="#0E6131"/>
<stop offset="1" stop-color="#95E014"/>
</linearGradient>
</defs>
</svg>
