<svg width="84" height="84" viewBox="0 0 84 84" fill="none" xmlns="http://www.w3.org/2000/svg">
<path d="M8.3246 37.4773C9.38607 37.4785 10.407 37.8849 11.1789 38.6135C11.9507 39.3421 12.4152 40.3379 12.4774 41.3974C12.5396 42.4569 12.1949 43.5002 11.5136 44.3141C10.8323 45.128 9.8659 45.6511 8.81186 45.7764L8.3246 45.8056H4.15999C3.09852 45.8044 2.07755 45.398 1.3057 44.6694C0.533851 43.9408 0.0693705 42.945 0.00716327 41.8855C-0.0550439 40.8259 0.289718 39.7826 0.971007 38.9688C1.6523 38.1549 2.61869 37.6318 3.67273 37.5064L4.15999 37.4773H8.3246ZM41.6414 0C42.6615 0.000134546 43.646 0.37459 44.4083 1.05234C45.1706 1.7301 45.6575 2.66401 45.7769 3.67694L45.806 4.16414V8.32829C45.8049 9.38964 45.3984 10.4105 44.6697 11.1823C43.9411 11.954 42.9452 12.4185 41.8855 12.4807C40.8259 12.5429 39.7824 12.1981 38.9685 11.5169C38.1545 10.8357 37.6314 9.86942 37.506 8.81549L37.4768 8.32829V4.16414C37.4768 3.05974 37.9156 2.00058 38.6966 1.21965C39.4776 0.438721 40.5369 0 41.6414 0ZM79.1229 37.4773C80.1844 37.4785 81.2053 37.8849 81.9772 38.6135C82.749 39.3421 83.2135 40.3379 83.2757 41.3974C83.3379 42.4569 82.9932 43.5002 82.3119 44.3141C81.6306 45.128 80.6642 45.6511 79.6101 45.7764L79.1229 45.8056H74.9583C73.8968 45.8044 72.8758 45.398 72.104 44.6694C71.3321 43.9408 70.8677 42.945 70.8055 41.8855C70.7432 40.8259 71.088 39.7826 71.7693 38.9688C72.4506 38.1549 73.417 37.6318 74.471 37.5064L74.9583 37.4773H79.1229ZM12.0436 12.0469C12.7607 11.3299 13.7148 10.8992 14.7269 10.8356C15.739 10.7719 16.7396 11.0797 17.5409 11.7012L17.9323 12.0469L20.8476 14.9618C21.5945 15.7111 22.0281 16.7167 22.0604 17.7742C22.0927 18.8316 21.7212 19.8618 21.0214 20.6553C20.3216 21.4489 19.346 21.9463 18.2927 22.0466C17.2394 22.147 16.1873 21.8426 15.3503 21.1955L14.9588 20.8499L12.0436 17.935C11.2628 17.1541 10.8242 16.0951 10.8242 14.9909C10.8242 13.8867 11.2628 12.8278 12.0436 12.0469ZM65.3505 12.0469C66.1 11.3 67.1056 10.8664 68.1632 10.8342C69.2208 10.8019 70.2511 11.1733 71.0447 11.873C71.8383 12.5727 72.3359 13.5483 72.4362 14.6015C72.5365 15.6547 72.2322 16.7066 71.585 17.5435L71.2393 17.935L68.3241 20.8499C67.5746 21.5967 66.569 22.0303 65.5114 22.0626C64.4538 22.0949 63.4235 21.7234 62.6299 21.0237C61.8363 20.324 61.3387 19.3485 61.2384 18.2953C61.1381 17.2421 61.4424 16.1902 62.0896 15.3532L62.4353 14.9618L65.3505 12.0469ZM49.9706 66.6263C51.0752 66.6263 52.1345 67.065 52.9155 67.8459C53.6965 68.6269 54.1353 69.686 54.1353 70.7904C54.1353 74.1036 52.8189 77.2811 50.4759 79.6239C48.1329 81.9667 44.955 83.2829 41.6414 83.2829C38.3279 83.2829 35.15 81.9667 32.807 79.6239C30.4639 77.2811 29.1476 74.1036 29.1476 70.7904C29.1478 69.7705 29.5223 68.7861 30.2001 68.0239C30.8779 67.2617 31.8119 66.7748 32.825 66.6554L33.3122 66.6263H49.9706ZM41.6414 16.6566C46.8859 16.6566 51.9974 18.3065 56.252 21.3727C60.5065 24.4388 63.6883 28.7657 65.3468 33.7405C67.0052 38.7153 67.0562 44.0858 65.4925 49.0911C63.9287 54.0965 60.8296 58.483 56.634 61.6293C56.06 62.0604 55.3843 62.3358 54.6725 62.4288L54.1353 62.4622H29.1476C28.2465 62.4622 27.3697 62.1699 26.6489 61.6293C22.4533 58.483 19.3541 54.0965 17.7904 49.0911C16.2267 44.0858 16.2776 38.7153 17.9361 33.7405C19.5945 28.7657 22.7764 24.4388 27.0309 21.3727C31.2854 18.3065 36.397 16.6566 41.6414 16.6566Z" fill="url(#paint0_linear_593_570056)"/>
<defs>
<linearGradient id="paint0_linear_593_570056" x1="41.6414" y1="0" x2="41.6414" y2="83.2829" gradientUnits="userSpaceOnUse">
<stop stop-color="#0E6131"/>
<stop offset="1" stop-color="#95E014"/>
</linearGradient>
</defs>
</svg>
