<svg width="74" height="53" viewBox="0 0 74 53" fill="none" xmlns="http://www.w3.org/2000/svg">
<g clip-path="url(#clip0_598_572307)">
<path d="M72.9288 3.92821V48.4479C72.9288 49.5936 72.3997 50.3984 71.3416 50.8621C70.9889 50.9985 70.6498 51.0667 70.3242 51.0667C69.5916 51.0667 68.9812 50.8076 68.4928 50.2893L52.092 33.799V40.5915C52.092 43.8377 50.9457 46.6134 48.6531 48.9185C46.3605 51.2236 43.5999 52.3761 40.3713 52.3761H11.7207C8.49208 52.3761 5.73148 51.2236 3.43889 48.9185C1.1463 46.6134 0 43.8377 0 40.5915V11.7846C0 8.5384 1.1463 5.76274 3.43889 3.45764C5.73148 1.15255 8.49208 0 11.7207 0H40.3713C43.5999 0 46.3605 1.15255 48.6531 3.45764C50.9457 5.76274 52.092 8.5384 52.092 11.7846V18.5362L68.4928 2.08686C68.9812 1.56856 69.5916 1.3094 70.3242 1.3094C70.6498 1.3094 70.9889 1.3776 71.3416 1.514C72.3997 1.97774 72.9288 2.78248 72.9288 3.92821Z" fill="url(#paint0_linear_598_572307)"/>
</g>
<defs>
<linearGradient id="paint0_linear_598_572307" x1="36.4644" y1="0" x2="36.4644" y2="52.3761" gradientUnits="userSpaceOnUse">
<stop stop-color="#0E6131"/>
<stop offset="1" stop-color="#95E014"/>
</linearGradient>
<clipPath id="clip0_598_572307">
<rect width="73.1277" height="52.2341" fill="white"/>
</clipPath>
</defs>
</svg>
