<svg width="69" height="76" viewBox="0 0 69 76" fill="none" xmlns="http://www.w3.org/2000/svg">
<path d="M0 67.0278V28.1084C0 26.739 0.305628 25.4417 0.916886 24.2165C1.52814 22.9913 2.37042 21.9822 3.44371 21.1894L29.2715 1.72975C30.7781 0.576583 32.5 0 34.4371 0C36.3742 0 38.096 0.576583 39.6026 1.72975L65.4304 21.1894C66.5066 21.9822 67.3503 22.9913 67.9616 24.2165C68.5728 25.4417 68.877 26.739 68.8741 28.1084V67.0278C68.8741 69.4062 68.0304 71.443 66.343 73.1381C64.6556 74.8333 62.6296 75.6794 60.2649 75.6765H47.351C46.1313 75.6765 45.1097 75.2614 44.2861 74.4311C43.4625 73.6008 43.0492 72.5745 43.0463 71.3522V49.7303C43.0463 48.5051 42.6331 47.4787 41.8066 46.6513C40.9801 45.8239 39.9585 45.4088 38.7417 45.4059H30.1324C28.9128 45.4059 27.8912 45.8211 27.0675 46.6513C26.2439 47.4816 25.8307 48.5079 25.8278 49.7303V71.3522C25.8278 72.5774 25.4146 73.6052 24.5881 74.4354C23.7616 75.2657 22.7399 75.6794 21.5232 75.6765H8.60927C6.24172 75.6765 4.21567 74.8304 2.53112 73.1381C0.846577 71.4459 0.00286976 69.4091 0 67.0278Z" fill="url(#paint0_linear_588_560634)"/>
<defs>
<linearGradient id="paint0_linear_588_560634" x1="34.4371" y1="0" x2="34.4371" y2="75.6766" gradientUnits="userSpaceOnUse">
<stop stop-color="#37934B"/>
<stop offset="1" stop-color="#95E014"/>
</linearGradient>
</defs>
</svg>
