<svg width="77" height="77" viewBox="0 0 77 77" fill="none" xmlns="http://www.w3.org/2000/svg">
<path fill-rule="evenodd" clip-rule="evenodd" d="M13.547 0.755065C18.5416 0.360526 26.3575 0 38.2634 0C50.1676 0 57.9852 0.360526 62.9799 0.755065C68.9116 1.22443 73.7736 5.18172 74.7888 11.275C75.6816 16.642 76.5268 25.1739 76.5268 38.2634C76.5268 51.3529 75.6816 59.8848 74.7888 65.2519C73.7736 71.3451 68.9116 75.3024 62.9799 75.7718C57.9852 76.1663 50.1693 76.5268 38.2634 76.5268C26.3592 76.5268 18.5399 76.1663 13.547 75.7718C7.61527 75.3024 2.75327 71.3451 1.73801 65.2519C0.845197 59.8848 0 51.3529 0 38.2634C0 25.1739 0.845197 16.642 1.73801 11.275C2.75327 5.18172 7.61527 1.22443 13.547 0.755065ZM25.4171 56.1826C23.1672 53.6793 24.5379 50.5162 27.9 50.3649C29.1992 50.3053 30.7366 50.2543 32.5477 50.2186C32.3813 46.2358 32.302 42.2497 32.3096 38.2634C32.3096 32.8861 32.4338 28.8744 32.5477 26.3099C30.7383 26.2759 29.2009 26.2249 27.9 26.1654C24.5396 26.0123 23.1689 22.8492 25.4171 20.3459C26.5783 19.0573 27.7678 17.7946 28.985 16.5587C31.8964 13.5912 34.1208 11.8225 35.6632 10.7801C37.2703 9.6917 39.2515 9.6917 40.8602 10.7801C42.401 11.8225 44.6271 13.5912 47.5368 16.5587C48.7551 17.7951 49.9458 19.0584 51.108 20.3476C53.3545 22.8509 51.9855 26.0123 48.6252 26.1637C47.3276 26.2232 45.7971 26.2742 43.9961 26.3099C44.105 28.7418 44.2155 32.6106 44.2155 38.2651C44.2155 43.9179 44.105 47.7868 43.9961 50.2203C45.7971 50.2543 47.3259 50.3053 48.6218 50.3649C51.9838 50.5179 53.3528 53.681 51.1046 56.1843C49.9431 57.4726 48.7535 58.7353 47.5368 59.9715C44.6271 62.9374 42.401 64.7077 40.8602 65.7502C40.0976 66.2809 39.1908 66.5654 38.2617 66.5654C37.3326 66.5654 36.4258 66.2809 35.6632 65.7502C34.1225 64.7077 31.8964 62.9374 28.985 59.9715C27.7672 58.7351 26.5788 57.4718 25.4171 56.1826Z" fill="url(#paint0_linear_588_560635)"/>
<defs>
<linearGradient id="paint0_linear_588_560635" x1="38.2634" y1="0" x2="38.2634" y2="76.5268" gradientUnits="userSpaceOnUse">
<stop stop-color="#37934B"/>
<stop offset="1" stop-color="#95E014"/>
</linearGradient>
</defs>
</svg>
