<svg width="83" height="83" viewBox="0 0 83 83" fill="none" xmlns="http://www.w3.org/2000/svg">
<path d="M4.13527 10.1867C5.44745 8.87438 7.00527 7.83338 8.71978 7.12316C10.4343 6.41293 12.2719 6.04738 14.1277 6.04738C15.9835 6.04738 17.8211 6.41293 19.5356 7.12316C21.2502 7.83338 22.808 8.87438 24.1202 10.1867L24.8105 10.8771C25.1891 11.2555 25.7025 11.4681 26.2377 11.4681C26.773 11.4681 27.2864 11.2555 27.6649 10.8771L28.3594 10.1907C30.3772 8.1728 32.9588 6.81313 35.7643 6.29066C38.5698 5.76818 41.4678 6.1074 44.0768 7.26365C42.9623 10.091 42.3898 13.1027 42.3892 16.1418C42.3892 19.7431 43.1764 23.1587 44.5895 26.2311H28.2584C26.1169 26.2311 24.0631 27.0818 22.5488 28.5961C21.0345 30.1104 20.1837 32.1643 20.1837 34.3058V54.4926C20.1837 55.553 20.3926 56.603 20.7984 57.5826C21.2042 58.5623 21.799 59.4524 22.5488 60.2023C23.2986 60.9521 24.1887 61.5468 25.1684 61.9526C26.1481 62.3584 27.1981 62.5673 28.2584 62.5673H48.4452C50.5867 62.5673 52.6406 61.7165 54.1549 60.2023C55.6692 58.688 56.5199 56.6341 56.5199 54.4926V38.1575C59.4832 39.5207 62.6921 40.2693 65.9527 40.3581C69.2134 40.447 72.4582 39.8741 75.4914 38.6742C76.6477 41.2832 76.9869 44.1812 76.4644 46.9867C75.9419 49.7922 74.5822 52.3738 72.5643 54.3916L71.878 55.0861C71.4995 55.4646 71.2869 55.978 71.2869 56.5133C71.2869 57.0485 71.4995 57.5619 71.878 57.9405L72.5643 58.6309C75.1709 61.2895 76.6228 64.8694 76.6045 68.5926C76.5863 72.3158 75.0994 75.8813 72.4669 78.5143C69.8345 81.1473 66.2692 82.635 62.5461 82.6539C58.8229 82.6729 55.2426 81.2217 52.5835 78.6157L51.889 77.9254C51.5105 77.5469 50.9971 77.3343 50.4618 77.3343C49.9266 77.3343 49.4132 77.5469 49.0346 77.9254L48.3402 78.6117C45.6903 81.2608 42.0968 82.749 38.3498 82.749C34.6028 82.749 31.0093 81.2608 28.3594 78.6117L27.6649 77.9254C27.2864 77.5469 26.773 77.3343 26.2377 77.3343C25.7025 77.3343 25.1891 77.5469 24.8105 77.9254L24.1161 78.6117C21.451 81.1857 17.8816 82.61 14.1765 82.5778C10.4715 82.5456 6.92735 81.0595 4.3074 78.4396C1.68745 75.8196 0.201334 72.2755 0.169139 68.5704C0.136943 64.8654 1.56124 61.2959 4.13527 58.6309L4.82565 57.9405C5.2041 57.5619 5.41669 57.0485 5.41669 56.5133C5.41669 55.978 5.2041 55.4646 4.82565 55.0861L4.1393 54.3916C2.82699 53.0795 1.786 51.5216 1.07578 49.8071C0.36555 48.0926 0 46.255 0 44.3992C0 42.5434 0.36555 40.7058 1.07578 38.9913C1.786 37.2768 2.82699 35.7189 4.1393 34.4068L4.82565 33.7164C5.01365 33.5288 5.1628 33.3061 5.26456 33.0608C5.36633 32.8156 5.41872 32.5527 5.41872 32.2871C5.41872 32.0216 5.36633 31.7587 5.26456 31.5135C5.1628 31.2682 5.01365 31.0454 4.82565 30.8579L4.1393 30.1675C2.82699 28.8554 1.786 27.2975 1.07578 25.583C0.36555 23.8685 0 22.0309 0 20.1751C0 18.3193 0.36555 16.4817 1.07578 14.7672C1.786 13.0527 2.82699 11.4948 4.1393 10.1827M48.4452 54.4966H28.2584V34.3099H48.4452V54.4966ZM64.7117 1.28433C64.8639 0.905091 65.1262 0.580105 65.4647 0.351213C65.8033 0.122321 66.2026 0 66.6113 0C67.0199 0 67.4192 0.122321 67.7578 0.351213C68.0963 0.580105 68.3586 0.905091 68.5108 1.28433L69.5323 3.74711C71.2471 7.92681 74.4999 11.2895 78.6204 13.142L81.5192 14.434C81.8898 14.6055 82.2036 14.8795 82.4235 15.2236C82.6435 15.5677 82.7604 15.9676 82.7604 16.3759C82.7604 16.7843 82.6435 17.1842 82.4235 17.5283C82.2036 17.8724 81.8898 18.1464 81.5192 18.3179L78.4508 19.6825C74.4351 21.4845 71.2402 24.7255 69.4959 28.7666L68.4987 31.0517C68.3435 31.4238 68.0816 31.7417 67.7461 31.9653C67.4106 32.1888 67.0164 32.3081 66.6133 32.3081C66.2101 32.3081 65.8159 32.1888 65.4804 31.9653C65.1449 31.7417 64.883 31.4238 64.7278 31.0517L63.7346 28.7706C61.9902 24.7273 58.7937 21.4847 54.7758 19.6825L51.7074 18.3179C51.3356 18.1469 51.0207 17.8729 50.7999 17.5283C50.5791 17.1838 50.4618 16.7831 50.4618 16.3739C50.4618 15.9647 50.5791 15.5641 50.7999 15.2195C51.0207 14.875 51.3356 14.601 51.7074 14.4299L54.6021 13.138C58.7211 11.2873 61.9737 7.92781 63.6902 3.75115L64.7117 1.28433Z" fill="url(#paint0_linear_593_570058)"/>
<defs>
<linearGradient id="paint0_linear_593_570058" x1="41.3802" y1="0" x2="41.3802" y2="82.749" gradientUnits="userSpaceOnUse">
<stop stop-color="#0E6131"/>
<stop offset="1" stop-color="#95E014"/>
</linearGradient>
</defs>
</svg>
