<svg width="88" height="71" viewBox="0 0 88 71" fill="none" xmlns="http://www.w3.org/2000/svg">
<path d="M46.1203 0.746047C44.6458 -0.248682 42.7343 -0.248682 41.2598 0.746047L22.7052 13.2631H6.55351C2.93543 13.2631 0 16.2334 0 19.8946V64.1048C0 67.7659 2.93543 70.7363 6.55351 70.7363H34.952V57.4732C34.952 52.5963 38.8705 48.6312 43.6901 48.6312C48.5096 48.6312 52.4281 52.5963 52.4281 57.4732V70.7363H80.8266C84.4447 70.7363 87.3801 67.7659 87.3801 64.1048V19.8946C87.3801 16.2334 84.4447 13.2631 80.8266 13.2631H64.6749L46.1203 0.746047ZM13.107 26.5261H17.476C18.6775 26.5261 19.6605 27.5208 19.6605 28.7366V37.5786C19.6605 38.7944 18.6775 39.7892 17.476 39.7892H13.107C11.9055 39.7892 10.9225 38.7944 10.9225 37.5786V28.7366C10.9225 27.5208 11.9055 26.5261 13.107 26.5261ZM67.7196 28.7366C67.7196 27.5208 68.7026 26.5261 69.9041 26.5261H74.2731C75.4746 26.5261 76.4576 27.5208 76.4576 28.7366V37.5786C76.4576 38.7944 75.4746 39.7892 74.2731 39.7892H69.9041C68.7026 39.7892 67.7196 38.7944 67.7196 37.5786V28.7366ZM13.107 44.2102H17.476C18.6775 44.2102 19.6605 45.2049 19.6605 46.4207V55.2627C19.6605 56.4785 18.6775 57.4732 17.476 57.4732H13.107C11.9055 57.4732 10.9225 56.4785 10.9225 55.2627V46.4207C10.9225 45.2049 11.9055 44.2102 13.107 44.2102ZM67.7196 46.4207C67.7196 45.2049 68.7026 44.2102 69.9041 44.2102H74.2731C75.4746 44.2102 76.4576 45.2049 76.4576 46.4207V55.2627C76.4576 56.4785 75.4746 57.4732 74.2731 57.4732H69.9041C68.7026 57.4732 67.7196 56.4785 67.7196 55.2627V46.4207ZM31.6753 24.3156C31.6753 21.0911 32.9411 17.9988 35.1943 15.7187C37.4475 13.4387 40.5035 12.1578 43.6901 12.1578C46.8766 12.1578 49.9326 13.4387 52.1858 15.7187C54.439 17.9988 55.7048 21.0911 55.7048 24.3156C55.7048 27.54 54.439 30.6324 52.1858 32.9125C49.9326 35.1925 46.8766 36.4734 43.6901 36.4734C40.5035 36.4734 37.4475 35.1925 35.1943 32.9125C32.9411 30.6324 31.6753 27.54 31.6753 24.3156ZM43.6901 17.6841C42.4886 17.6841 41.5056 18.6788 41.5056 19.8946V24.3156C41.5056 25.5314 42.4886 26.5261 43.6901 26.5261H48.0591C49.2605 26.5261 50.2436 25.5314 50.2436 24.3156C50.2436 23.0998 49.2605 22.1051 48.0591 22.1051H45.8746V19.8946C45.8746 18.6788 44.8915 17.6841 43.6901 17.6841Z" fill="url(#paint0_linear_600_574525)"/>
<defs>
<linearGradient id="paint0_linear_600_574525" x1="43.6901" y1="0" x2="43.6901" y2="70.7363" gradientUnits="userSpaceOnUse">
<stop stop-color="#0E6131"/>
<stop offset="1" stop-color="#95E014"/>
</linearGradient>
</defs>
</svg>
