<svg width="71" height="71" viewBox="0 0 71 71" fill="none" xmlns="http://www.w3.org/2000/svg">
<path d="M35.0971 53.8677C35.9008 54.4035 36.7382 54.887 37.604 55.3155V67.7028C37.604 68.3677 37.3399 69.0053 36.8697 69.4755C36.3996 69.9456 35.7619 70.2097 35.0971 70.2097C34.4322 70.2097 33.7945 69.9456 33.3244 69.4755C32.8543 69.0053 32.5901 68.3677 32.5901 67.7028V55.3155C33.4559 54.887 34.2933 54.4035 35.0971 53.8677ZM57.064 14.6155C55.2505 10.2855 52.1978 6.58811 48.2895 3.98773C44.3811 1.38734 39.7914 0 35.0971 0C30.4027 0 25.813 1.38734 21.9046 3.98773C17.9963 6.58811 14.9436 10.2855 13.1301 14.6155C9.21368 16.4056 5.89405 19.2832 3.56629 22.9059C1.23854 26.5287 0.000691761 30.744 7.30197e-05 35.0501C-0.0312636 47.0207 10.0278 57.3617 21.9796 57.6751C25.6556 57.7625 29.2976 56.9525 32.5901 55.3155V44.1816L18.9336 37.3565C18.3386 37.0589 17.8861 36.5372 17.6757 35.906C17.4653 35.2749 17.5143 34.586 17.8118 33.9909C18.1093 33.3958 18.6311 32.9433 19.2622 32.7329C19.8934 32.5226 20.5823 32.5715 21.1773 32.869L32.5901 38.5786V22.5781C32.5901 21.9132 32.8543 21.2756 33.3244 20.8055C33.7945 20.3353 34.4322 20.0712 35.0971 20.0712C35.7619 20.0712 36.3996 20.3353 36.8697 20.8055C37.3399 21.2756 37.604 21.9132 37.604 22.5781V31.0578L49.0168 25.3483C49.3114 25.2009 49.6322 25.1131 49.9608 25.0897C50.2894 25.0664 50.6194 25.108 50.9319 25.2122C51.2444 25.3163 51.5333 25.481 51.7822 25.6969C52.0311 25.9127 52.235 26.1755 52.3823 26.4701C52.5296 26.7648 52.6175 27.0855 52.6408 27.4141C52.6642 27.7427 52.6226 28.0727 52.5184 28.3852C52.4142 28.6978 52.2495 28.9867 52.0337 29.2356C51.8179 29.4844 51.5551 29.6883 51.2605 29.8357L37.604 36.6608V55.3155C40.7206 56.8626 44.1521 57.6701 47.6317 57.6751H48.202C60.1663 57.3617 70.2285 47.0207 70.194 35.0501C70.1934 30.744 68.9556 26.5287 66.6278 22.9059C64.3001 19.2832 60.9804 16.4056 57.064 14.6155Z" fill="url(#paint0_linear_598_572310)"/>
<defs>
<linearGradient id="paint0_linear_598_572310" x1="35.0971" y1="0" x2="35.0971" y2="70.2097" gradientUnits="userSpaceOnUse">
<stop stop-color="#0E6131"/>
<stop offset="1" stop-color="#95E014"/>
</linearGradient>
</defs>
</svg>
