<svg width="84" height="85" viewBox="0 0 84 85" fill="none" xmlns="http://www.w3.org/2000/svg">
<path d="M75 0H9C4.03125 0 0 4.07324 0 9.09375V75.7812C0 80.8018 4.03125 84.875 9 84.875H75C79.9688 84.875 84 80.8018 84 75.7812V9.09375C84 4.07324 79.9688 0 75 0ZM45 54.5625H36V63.6562C36 65.3234 34.65 66.6875 33 66.6875H27C25.35 66.6875 24 65.3234 24 63.6562V21.2188C24 19.5516 25.35 18.1875 27 18.1875H45C54.9188 18.1875 63 26.3529 63 36.375C63 46.3971 54.9188 54.5625 45 54.5625ZM45 30.3125H36V42.4375H45C48.3 42.4375 51 39.7094 51 36.375C51 33.0406 48.3 30.3125 45 30.3125Z" fill="url(#paint0_linear_593_570005)"/>
<defs>
<linearGradient id="paint0_linear_593_570005" x1="42" y1="0" x2="42" y2="84.875" gradientUnits="userSpaceOnUse">
<stop stop-color="#37934B"/>
<stop offset="1" stop-color="#95E014"/>
</linearGradient>
</defs>
</svg>
