<svg width="80" height="80" viewBox="0 0 80 80" fill="none" xmlns="http://www.w3.org/2000/svg">
<path d="M56.147 71.0335C52.4919 71.0335 49.5415 67.3344 49.5415 62.7545C49.5415 58.2188 52.4919 54.5197 56.147 54.5197C59.802 54.5197 62.7525 58.2188 62.7525 62.7545C62.7525 67.3344 59.802 71.0335 56.147 71.0335ZM39.6332 36.3325C34.1726 36.3325 29.7249 32.6334 29.7249 28.0976C29.7249 23.5178 34.1726 19.8187 39.6332 19.8187C45.0937 19.8187 49.5415 23.5178 49.5415 28.0976C49.5415 32.6334 45.0937 36.3325 39.6332 36.3325ZM23.1194 71.0335C19.4643 71.0335 16.5139 67.3344 16.5139 62.7545C16.5139 58.2188 19.4643 54.5197 23.1194 54.5197C26.7744 54.5197 29.7249 58.2188 29.7249 62.7545C29.7249 67.3344 26.7744 71.0335 23.1194 71.0335ZM39.6332 23.1214C41.4387 23.1214 42.9359 24.6187 42.9359 26.4242C42.9359 28.2297 41.4387 29.727 39.6332 29.727C37.8277 29.727 36.3304 28.2297 36.3304 26.4242C36.3304 24.6187 37.8277 23.1214 39.6332 23.1214ZM69.358 39.6352C67.9488 39.6352 66.5837 39.9435 65.3507 40.516C63.2369 37.8297 60.3745 35.5398 56.9396 33.7783C59.4497 30.2554 60.947 25.9838 60.947 21.36V21.0957C65.747 20.0829 69.358 15.8113 69.358 10.659C69.358 4.80213 64.558 0.00211559 58.7011 0.00211559C55.6626 0.00211559 52.8442 1.27918 50.9947 3.30488C47.5983 1.14636 43.6574 0 39.6332 0C35.609 0 31.668 1.14636 28.2717 3.30488C26.4221 1.27918 23.6038 0.00211559 20.5652 0.00211559C14.7083 0.00211559 9.90834 4.80213 9.90834 10.659C9.90834 15.7673 13.5194 20.0389 18.2753 21.0957V21.36C18.2753 25.9838 19.8166 30.2994 22.2827 33.7783C18.8918 35.5398 16.0295 37.8297 13.9157 40.516C12.4108 39.8381 10.7599 39.5486 9.1141 39.6741C7.46834 39.7996 5.88039 40.3361 4.49571 41.2344C3.11103 42.1327 1.97389 43.3641 1.18846 44.8158C0.403029 46.2674 -0.00558244 47.893 5.76038e-05 49.5435C5.76038e-05 55.0481 4.40374 59.4518 9.90834 59.4518H10.1726C9.99641 60.5087 9.90834 61.6536 9.90834 62.7545C9.90834 71.8702 15.8093 79.2683 23.1194 79.2683C27.5671 79.2683 31.4864 76.494 33.9084 72.2665C35.7579 72.5307 37.6515 72.6628 39.6332 72.6628C41.6148 72.6628 43.5084 72.5307 45.358 72.2665C47.78 76.494 51.6993 79.2683 56.147 79.2683C63.4571 79.2683 69.358 71.8702 69.358 62.7545C69.358 61.6536 69.27 60.5087 69.0938 59.4518H69.358C74.8626 59.4518 79.2663 55.0481 79.2663 49.5435C79.2663 44.0389 74.8626 39.6352 69.358 39.6352Z" fill="url(#paint0_linear_600_574527)"/>
<defs>
<linearGradient id="paint0_linear_600_574527" x1="39.6332" y1="0" x2="39.6332" y2="79.2683" gradientUnits="userSpaceOnUse">
<stop stop-color="#0E6131"/>
<stop offset="1" stop-color="#95E014"/>
</linearGradient>
</defs>
</svg>
