<svg width="75" height="75" viewBox="0 0 75 75" fill="none" xmlns="http://www.w3.org/2000/svg">
<path d="M41.5701 41.5701H74.8262V66.5122C74.8262 68.7986 74.0129 70.7565 72.3861 72.3861C70.7593 74.0156 68.8013 74.829 66.5122 74.8262H41.5701V41.5701ZM41.5701 33.2561V0H66.5122C68.7986 0 70.7565 0.814775 72.3861 2.44432C74.0156 4.07387 74.829 6.03044 74.8262 8.31403V33.2561H41.5701ZM33.2561 33.2561H0V8.31403C0 6.02767 0.814775 4.0711 2.44432 2.44432C4.07387 0.817546 6.03044 0.00277134 8.31403 0H33.2561V33.2561ZM33.2561 41.5701V74.8262H8.31403C6.02767 74.8262 4.0711 74.0129 2.44432 72.3861C0.817546 70.7593 0.00277134 68.8013 0 66.5122V41.5701H33.2561Z" fill="url(#paint0_linear_588_560644)"/>
<defs>
<linearGradient id="paint0_linear_588_560644" x1="37.4131" y1="0" x2="37.4131" y2="74.8262" gradientUnits="userSpaceOnUse">
<stop stop-color="#37934B"/>
<stop offset="1" stop-color="#95E014"/>
</linearGradient>
</defs>
</svg>
