<svg width="75" height="76" viewBox="0 0 75 76" fill="none" xmlns="http://www.w3.org/2000/svg">
<path d="M56.2507 5.09197C61.9068 8.4012 66.6118 13.1499 69.9002 18.868C73.1885 24.5861 74.946 31.0754 74.9988 37.6933C75.0515 44.3112 73.3977 50.8283 70.2009 56.5995C67.0042 62.3707 62.3754 67.1958 56.7729 70.5972C51.1703 73.9986 44.7882 75.8583 38.2583 75.9922C31.7285 76.1261 25.2774 74.5296 19.5436 71.3607C13.8098 68.1918 8.99213 63.5604 5.56757 57.925C2.14301 52.2896 0.230288 45.8456 0.0187507 39.231L0 37.9998L0.0187507 36.7686C0.271197 28.8616 2.95275 21.2316 7.68938 14.9428C12.426 8.65398 18.9815 4.02 26.4416 1.68719C26.135 3.33454 26.1907 5.03014 26.6047 6.65318C27.0188 8.27622 27.781 9.78675 28.8371 11.0771C29.8931 12.3675 31.2171 13.406 32.7145 14.1187C34.212 14.8313 35.8461 15.2005 37.5005 15.1999C38.495 15.1999 39.4489 14.7996 40.1521 14.0869C40.8554 13.3743 41.2505 12.4078 41.2505 11.3999C41.2505 10.3921 40.8554 9.42558 40.1521 8.71295C39.4489 8.00031 38.495 7.59996 37.5005 7.59996L37.0617 7.57336C36.1126 7.45897 35.2424 6.98165 34.6289 6.23893C34.0154 5.49621 33.705 4.54415 33.761 3.57728C33.817 2.61041 34.2353 1.7017 34.9303 1.03682C35.6253 0.371939 36.5447 0.00107428 37.5005 0C43.973 0 50.4494 1.69859 56.2507 5.09197ZM49.5006 46.6865C48.7904 45.9812 47.8328 45.5905 46.8385 45.6005C45.8441 45.6105 44.8943 46.0203 44.198 46.7397C43.3251 47.6428 42.2831 48.3603 41.133 48.8501C39.9829 49.3399 38.748 49.5922 37.5005 49.5922C36.2529 49.5922 35.018 49.3399 33.8679 48.8501C32.7178 48.3603 31.6758 47.6428 30.8029 46.7397C30.1031 46.0369 29.1585 45.6413 28.1732 45.6385C27.1879 45.6358 26.2411 46.0261 25.5375 46.725C24.834 47.424 24.4301 48.3755 24.4133 49.3737C24.3965 50.372 24.7682 51.3369 25.4478 52.0597C27.019 53.6843 28.8943 54.975 30.9638 55.8561C33.0334 56.7372 35.2556 57.1911 37.5005 57.1911C39.7453 57.1911 41.9675 56.7372 44.0371 55.8561C46.1066 54.975 47.9819 53.6843 49.5531 52.0597C50.2492 51.3401 50.6347 50.3697 50.6249 49.3621C50.615 48.3545 50.2106 47.3921 49.5006 46.6865ZM26.2878 26.5999L25.8116 26.6265C24.8624 26.7408 23.9922 27.2182 23.3788 27.9609C22.7653 28.7036 22.4549 29.6557 22.5109 30.6225C22.5669 31.5894 22.9851 32.4981 23.6802 33.163C24.3752 33.8279 25.2945 34.1987 26.2503 34.1998L26.7266 34.1732C27.6757 34.0588 28.5459 33.5815 29.1594 32.8388C29.7728 32.0961 30.0833 31.144 30.0273 30.1771C29.9712 29.2103 29.553 28.3015 28.858 27.6367C28.163 26.9718 27.2436 26.6009 26.2878 26.5999ZM48.7881 26.5999L48.3118 26.6265C47.3627 26.7408 46.4925 27.2182 45.8791 27.9609C45.2656 28.7036 44.9551 29.6557 45.0112 30.6225C45.0672 31.5894 45.4854 32.4981 46.1804 33.163C46.8755 33.8279 47.7948 34.1987 48.7506 34.1998L49.2269 34.1732C50.176 34.0588 51.0462 33.5815 51.6596 32.8388C52.2731 32.0961 52.5835 31.144 52.5275 30.1771C52.4715 29.2103 52.0533 28.3015 51.3583 27.6367C50.6632 26.9718 49.7439 26.6009 48.7881 26.5999Z" fill="url(#paint0_linear_598_572311)"/>
<defs>
<linearGradient id="paint0_linear_598_572311" x1="37.5" y1="0" x2="37.5" y2="76" gradientUnits="userSpaceOnUse">
<stop stop-color="#0E6131"/>
<stop offset="1" stop-color="#95E014"/>
</linearGradient>
</defs>
</svg>
